TITLE ""
FILE "TOEIC LR Kinnojyukugo_01.mp3" MP3
  TRACK 01 AUDIO
    TITLE "TOEIC LR Kinnojyukugo_01_0001"
    INDEX 01 00:00:00
  TRACK 02 AUDIO
    TITLE "TOEIC LR Kinnojyukugo_01_0002"
    INDEX 01 00:00:12
  TRACK 03 AUDIO
    TITLE "TOEIC LR Kinnojyukugo_01_0003"
    INDEX 01 00:01:25
  TRACK 04 AUDIO
    TITLE "TOEIC LR Kinnojyukugo_01_0004"
    INDEX 01 00:01:57
  TRACK 05 AUDIO
    TITLE "TOEIC LR Kinnojyukugo_01_0005"
    INDEX 01 00:02:68
  TRACK 06 AUDIO
    TITLE "TOEIC LR Kinnojyukugo_01_0006"
    INDEX 01 00:03:28
  TRACK 07 AUDIO
    TITLE "TOEIC LR Kinnojyukugo_01_0007"
    INDEX 01 00:05:13
  TRACK 08 AUDIO
    TITLE "TOEIC LR Kinnojyukugo_01_0008"
    INDEX 01 00:05:55
  TRACK 09 AUDIO
    TITLE "TOEIC LR Kinnojyukugo_01_0009"
    INDEX 01 00:07:42
  TRACK 10 AUDIO
    TITLE "TOEIC LR Kinnojyukugo_01_0010"
    INDEX 01 00:07:67
  TRACK 11 AUDIO
    TITLE "TOEIC LR Kinnojyukugo_01_0011"
    INDEX 01 00:09:54
  TRACK 12 AUDIO
    TITLE "TOEIC LR Kinnojyukugo_01_0012"
    INDEX 01 00:10:58
  TRACK 13 AUDIO
    TITLE "TOEIC LR Kinnojyukugo_01_0013"
    INDEX 01 00:12:06
  TRACK 14 AUDIO
    TITLE "TOEIC LR Kinnojyukugo_01_0014"
    INDEX 01 00:12:43
  TRACK 15 AUDIO
    TITLE "TOEIC LR Kinnojyukugo_01_0015"
    INDEX 01 00:15:16
  TRACK 16 AUDIO
    TITLE "TOEIC LR Kinnojyukugo_01_0016"
    INDEX 01 00:15:55
  TRACK 17 AUDIO
    TITLE "TOEIC LR Kinnojyukugo_01_0017"
    INDEX 01 00:17:52
  TRACK 18 AUDIO
    TITLE "TOEIC LR Kinnojyukugo_01_0018"
    INDEX 01 00:18:16
  TRACK 19 AUDIO
    TITLE "TOEIC LR Kinnojyukugo_01_0019"
    INDEX 01 00:20:01
  TRACK 20 AUDIO
    TITLE "TOEIC LR Kinnojyukugo_01_0020"
    INDEX 01 00:20:29
  TRACK 21 AUDIO
    TITLE "TOEIC LR Kinnojyukugo_01_0021"
    INDEX 01 00:22:14
  TRACK 22 AUDIO
    TITLE "TOEIC LR Kinnojyukugo_01_0022"
    INDEX 01 00:23:15
  TRACK 23 AUDIO
    TITLE "TOEIC LR Kinnojyukugo_01_0023"
    INDEX 01 00:24:42
  TRACK 24 AUDIO
    TITLE "TOEIC LR Kinnojyukugo_01_0024"
    INDEX 01 00:25:08
  TRACK 25 AUDIO
    TITLE "TOEIC LR Kinnojyukugo_01_0025"
    INDEX 01 00:28:54
  TRACK 26 AUDIO
    TITLE "TOEIC LR Kinnojyukugo_01_0026"
    INDEX 01 00:29:14
  TRACK 27 AUDIO
    TITLE "TOEIC LR Kinnojyukugo_01_0027"
    INDEX 01 00:31:54
  TRACK 28 AUDIO
    TITLE "TOEIC LR Kinnojyukugo_01_0028"
    INDEX 01 00:32:18
  TRACK 29 AUDIO
    TITLE "TOEIC LR Kinnojyukugo_01_0029"
    INDEX 01 00:35:30
  TRACK 30 AUDIO
    TITLE "TOEIC LR Kinnojyukugo_01_0030"
    INDEX 01 00:35:64
  TRACK 31 AUDIO
    TITLE "TOEIC LR Kinnojyukugo_01_0031"
    INDEX 01 00:39:03
  TRACK 32 AUDIO
    TITLE "TOEIC LR Kinnojyukugo_01_0032"
    INDEX 01 00:40:04
  TRACK 33 AUDIO
    TITLE "TOEIC LR Kinnojyukugo_01_0033"
    INDEX 01 00:41:29
  TRACK 34 AUDIO
    TITLE "TOEIC LR Kinnojyukugo_01_0034"
    INDEX 01 00:41:70
  TRACK 35 AUDIO
    TITLE "TOEIC LR Kinnojyukugo_01_0035"
    INDEX 01 00:43:67
  TRACK 36 AUDIO
    TITLE "TOEIC LR Kinnojyukugo_01_0036"
    INDEX 01 00:44:31
  TRACK 37 AUDIO
    TITLE "TOEIC LR Kinnojyukugo_01_0037"
    INDEX 01 00:47:39
  TRACK 38 AUDIO
    TITLE "TOEIC LR Kinnojyukugo_01_0038"
    INDEX 01 00:48:01
  TRACK 39 AUDIO
    TITLE "TOEIC LR Kinnojyukugo_01_0039"
    INDEX 01 00:51:53
  TRACK 40 AUDIO
    TITLE "TOEIC LR Kinnojyukugo_01_0040"
    INDEX 01 00:52:05
  TRACK 41 AUDIO
    TITLE "TOEIC LR Kinnojyukugo_01_0041"
    INDEX 01 00:55:56
  TRACK 42 AUDIO
    TITLE "TOEIC LR Kinnojyukugo_01_0042"
    INDEX 01 00:56:58
  TRACK 43 AUDIO
    TITLE "TOEIC LR Kinnojyukugo_01_0043"
    INDEX 01 00:58:23
  TRACK 44 AUDIO
    TITLE "TOEIC LR Kinnojyukugo_01_0044"
    INDEX 01 00:58:61
  TRACK 45 AUDIO
    TITLE "TOEIC LR Kinnojyukugo_01_0045"
    INDEX 01 01:01:59
  TRACK 46 AUDIO
    TITLE "TOEIC LR Kinnojyukugo_01_0046"
    INDEX 01 01:02:23
  TRACK 47 AUDIO
    TITLE "TOEIC LR Kinnojyukugo_01_0047"
    INDEX 01 01:05:14
  TRACK 48 AUDIO
    TITLE "TOEIC LR Kinnojyukugo_01_0048"
    INDEX 01 01:05:55
  TRACK 49 AUDIO
    TITLE "TOEIC LR Kinnojyukugo_01_0049"
    INDEX 01 01:08:12
  TRACK 50 AUDIO
    TITLE "TOEIC LR Kinnojyukugo_01_0050"
    INDEX 01 01:08:37
  TRACK 51 AUDIO
    TITLE "TOEIC LR Kinnojyukugo_01_0051"
    INDEX 01 01:10:70
  TRACK 52 AUDIO
    TITLE "TOEIC LR Kinnojyukugo_01_0052"
    INDEX 01 01:11:69
  TRACK 53 AUDIO
    TITLE "TOEIC LR Kinnojyukugo_01_0053"
    INDEX 01 01:13:07
  TRACK 54 AUDIO
    TITLE "TOEIC LR Kinnojyukugo_01_0054"
    INDEX 01 01:13:45
  TRACK 55 AUDIO
    TITLE "TOEIC LR Kinnojyukugo_01_0055"
    INDEX 01 01:14:60
  TRACK 56 AUDIO
    TITLE "TOEIC LR Kinnojyukugo_01_0056"
    INDEX 01 01:15:22
  TRACK 57 AUDIO
    TITLE "TOEIC LR Kinnojyukugo_01_0057"
    INDEX 01 01:18:12
  TRACK 58 AUDIO
    TITLE "TOEIC LR Kinnojyukugo_01_0058"
    INDEX 01 01:18:52
  TRACK 59 AUDIO
    TITLE "TOEIC LR Kinnojyukugo_01_0059"
    INDEX 01 01:20:54
  TRACK 60 AUDIO
    TITLE "TOEIC LR Kinnojyukugo_01_0060"
    INDEX 01 01:21:05
  TRACK 61 AUDIO
    TITLE "TOEIC LR Kinnojyukugo_01_0061"
    INDEX 01 01:23:08
  TRACK 62 AUDIO
    TITLE "TOEIC LR Kinnojyukugo_01_0062"
    INDEX 01 01:24:11
  TRACK 63 AUDIO
    TITLE "TOEIC LR Kinnojyukugo_01_0063"
    INDEX 01 01:25:50
  TRACK 64 AUDIO
    TITLE "TOEIC LR Kinnojyukugo_01_0064"
    INDEX 01 01:26:12
  TRACK 65 AUDIO
    TITLE "TOEIC LR Kinnojyukugo_01_0065"
    INDEX 01 01:27:60
  TRACK 66 AUDIO
    TITLE "TOEIC LR Kinnojyukugo_01_0066"
    INDEX 01 01:28:28
  TRACK 67 AUDIO
    TITLE "TOEIC LR Kinnojyukugo_01_0067"
    INDEX 01 01:32:30
  TRACK 68 AUDIO
    TITLE "TOEIC LR Kinnojyukugo_01_0068"
    INDEX 01 01:32:69
  TRACK 69 AUDIO
    TITLE "TOEIC LR Kinnojyukugo_01_0069"
    INDEX 01 01:35:17
  TRACK 70 AUDIO
    TITLE "TOEIC LR Kinnojyukugo_01_0070"
    INDEX 01 01:35:40
  TRACK 71 AUDIO
    TITLE "TOEIC LR Kinnojyukugo_01_0071"
    INDEX 01 01:37:61
  TRACK 72 AUDIO
    TITLE "TOEIC LR Kinnojyukugo_01_0072"
    INDEX 01 01:38:60
  TRACK 73 AUDIO
    TITLE "TOEIC LR Kinnojyukugo_01_0073"
    INDEX 01 01:40:00
  TRACK 74 AUDIO
    TITLE "TOEIC LR Kinnojyukugo_01_0074"
    INDEX 01 01:40:37
  TRACK 75 AUDIO
    TITLE "TOEIC LR Kinnojyukugo_01_0075"
    INDEX 01 01:43:01
  TRACK 76 AUDIO
    TITLE "TOEIC LR Kinnojyukugo_01_0076"
    INDEX 01 01:43:40
  TRACK 77 AUDIO
    TITLE "TOEIC LR Kinnojyukugo_01_0077"
    INDEX 01 01:46:40
  TRACK 78 AUDIO
    TITLE "TOEIC LR Kinnojyukugo_01_0078"
    INDEX 01 01:47:10
  TRACK 79 AUDIO
    TITLE "TOEIC LR Kinnojyukugo_01_0079"
    INDEX 01 01:49:25
  TRACK 80 AUDIO
    TITLE "TOEIC LR Kinnojyukugo_01_0080"
    INDEX 01 01:49:50
  TRACK 81 AUDIO
    TITLE "TOEIC LR Kinnojyukugo_01_0081"
    INDEX 01 01:51:67
  TRACK 82 AUDIO
    TITLE "TOEIC LR Kinnojyukugo_01_0082"
    INDEX 01 01:52:68
  TRACK 83 AUDIO
    TITLE "TOEIC LR Kinnojyukugo_01_0083"
    INDEX 01 01:53:66
  TRACK 84 AUDIO
    TITLE "TOEIC LR Kinnojyukugo_01_0084"
    INDEX 01 01:54:36
  TRACK 85 AUDIO
    TITLE "TOEIC LR Kinnojyukugo_01_0085"
    INDEX 01 01:58:16
  TRACK 86 AUDIO
    TITLE "TOEIC LR Kinnojyukugo_01_0086"
    INDEX 01 01:58:55
  TRACK 87 AUDIO
    TITLE "TOEIC LR Kinnojyukugo_01_0087"
    INDEX 01 02:01:16
  TRACK 88 AUDIO
    TITLE "TOEIC LR Kinnojyukugo_01_0088"
    INDEX 01 02:01:55
  TRACK 89 AUDIO
    TITLE "TOEIC LR Kinnojyukugo_01_0089"
    INDEX 01 02:03:56
  TRACK 90 AUDIO
    TITLE "TOEIC LR Kinnojyukugo_01_0090"
    INDEX 01 02:04:05
  TRACK 91 AUDIO
    TITLE "TOEIC LR Kinnojyukugo_01_0091"
    INDEX 01 02:06:06
  TRACK 92 AUDIO
    TITLE "TOEIC LR Kinnojyukugo_01_0092"
    INDEX 01 02:07:05
  TRACK 93 AUDIO
    TITLE "TOEIC LR Kinnojyukugo_01_0093"
    INDEX 01 02:08:22
  TRACK 94 AUDIO
    TITLE "TOEIC LR Kinnojyukugo_01_0094"
    INDEX 01 02:08:59
  TRACK 95 AUDIO
    TITLE "TOEIC LR Kinnojyukugo_01_0095"
    INDEX 01 02:09:74
  TRACK 96 AUDIO
    TITLE "TOEIC LR Kinnojyukugo_01_0096"
    INDEX 01 02:10:39
  TRACK 97 AUDIO
    TITLE "TOEIC LR Kinnojyukugo_01_0097"
    INDEX 01 02:12:59
  TRACK 98 AUDIO
    TITLE "TOEIC LR Kinnojyukugo_01_0098"
    INDEX 01 02:13:23
  TRACK 99 AUDIO
    TITLE "TOEIC LR Kinnojyukugo_01_0099"
    INDEX 01 02:15:52
  TRACK 100 AUDIO
    TITLE "TOEIC LR Kinnojyukugo_01_0100"
    INDEX 01 02:16:02
  TRACK 101 AUDIO
    TITLE "TOEIC LR Kinnojyukugo_01_0101"
    INDEX 01 02:18:32
  TRACK 102 AUDIO
    TITLE "TOEIC LR Kinnojyukugo_01_0102"
    INDEX 01 02:19:34
  TRACK 103 AUDIO
    TITLE "TOEIC LR Kinnojyukugo_01_0103"
    INDEX 01 02:20:37
  TRACK 104 AUDIO
    TITLE "TOEIC LR Kinnojyukugo_01_0104"
    INDEX 01 02:21:15
  TRACK 105 AUDIO
    TITLE "TOEIC LR Kinnojyukugo_01_0105"
    INDEX 01 02:26:38
  TRACK 106 AUDIO
    TITLE "TOEIC LR Kinnojyukugo_01_0106"
    INDEX 01 02:27:02
  TRACK 107 AUDIO
    TITLE "TOEIC LR Kinnojyukugo_01_0107"
    INDEX 01 02:28:56
  TRACK 108 AUDIO
    TITLE "TOEIC LR Kinnojyukugo_01_0108"
    INDEX 01 02:29:20
  TRACK 109 AUDIO
    TITLE "TOEIC LR Kinnojyukugo_01_0109"
    INDEX 01 02:30:65
  TRACK 110 AUDIO
    TITLE "TOEIC LR Kinnojyukugo_01_0110"
    INDEX 01 02:31:15
  TRACK 111 AUDIO
    TITLE "TOEIC LR Kinnojyukugo_01_0111"
    INDEX 01 02:32:60
  TRACK 112 AUDIO
    TITLE "TOEIC LR Kinnojyukugo_01_0112"
    INDEX 01 02:33:59
  TRACK 113 AUDIO
    TITLE "TOEIC LR Kinnojyukugo_01_0113"
    INDEX 01 02:35:05
  TRACK 114 AUDIO
    TITLE "TOEIC LR Kinnojyukugo_01_0114"
    INDEX 01 02:35:44
  TRACK 115 AUDIO
    TITLE "TOEIC LR Kinnojyukugo_01_0115"
    INDEX 01 02:36:65
  TRACK 116 AUDIO
    TITLE "TOEIC LR Kinnojyukugo_01_0116"
    INDEX 01 02:37:30
  TRACK 117 AUDIO
    TITLE "TOEIC LR Kinnojyukugo_01_0117"
    INDEX 01 02:41:02
  TRACK 118 AUDIO
    TITLE "TOEIC LR Kinnojyukugo_01_0118"
    INDEX 01 02:41:39
  TRACK 119 AUDIO
    TITLE "TOEIC LR Kinnojyukugo_01_0119"
    INDEX 01 02:44:45
  TRACK 120 AUDIO
    TITLE "TOEIC LR Kinnojyukugo_01_0120"
    INDEX 01 02:44:71
  TRACK 121 AUDIO
    TITLE "TOEIC LR Kinnojyukugo_01_0121"
    INDEX 01 02:48:00
  TRACK 122 AUDIO
    TITLE "TOEIC LR Kinnojyukugo_01_0122"
    INDEX 01 02:48:74
  TRACK 123 AUDIO
    TITLE "TOEIC LR Kinnojyukugo_01_0123"
    INDEX 01 02:50:22
  TRACK 124 AUDIO
    TITLE "TOEIC LR Kinnojyukugo_01_0124"
    INDEX 01 02:50:60
  TRACK 125 AUDIO
    TITLE "TOEIC LR Kinnojyukugo_01_0125"
    INDEX 01 02:53:52
  TRACK 126 AUDIO
    TITLE "TOEIC LR Kinnojyukugo_01_0126"
    INDEX 01 02:54:14
  TRACK 127 AUDIO
    TITLE "TOEIC LR Kinnojyukugo_01_0127"
    INDEX 01 02:56:54
  TRACK 128 AUDIO
    TITLE "TOEIC LR Kinnojyukugo_01_0128"
    INDEX 01 02:57:17
  TRACK 129 AUDIO
    TITLE "TOEIC LR Kinnojyukugo_01_0129"
    INDEX 01 02:59:45
  TRACK 130 AUDIO
    TITLE "TOEIC LR Kinnojyukugo_01_0130"
    INDEX 01 02:59:72
  TRACK 131 AUDIO
    TITLE "TOEIC LR Kinnojyukugo_01_0131"
    INDEX 01 03:02:26
  TRACK 132 AUDIO
    TITLE "TOEIC LR Kinnojyukugo_01_0132"
    INDEX 01 03:03:29
  TRACK 133 AUDIO
    TITLE "TOEIC LR Kinnojyukugo_01_0133"
    INDEX 01 03:04:48
  TRACK 134 AUDIO
    TITLE "TOEIC LR Kinnojyukugo_01_0134"
    INDEX 01 03:05:10
  TRACK 135 AUDIO
    TITLE "TOEIC LR Kinnojyukugo_01_0135"
    INDEX 01 03:08:69
  TRACK 136 AUDIO
    TITLE "TOEIC LR Kinnojyukugo_01_0136"
    INDEX 01 03:09:33
  TRACK 137 AUDIO
    TITLE "TOEIC LR Kinnojyukugo_01_0137"
    INDEX 01 03:11:11
  TRACK 138 AUDIO
    TITLE "TOEIC LR Kinnojyukugo_01_0138"
    INDEX 01 03:11:50
  TRACK 139 AUDIO
    TITLE "TOEIC LR Kinnojyukugo_01_0139"
    INDEX 01 03:13:16
  TRACK 140 AUDIO
    TITLE "TOEIC LR Kinnojyukugo_01_0140"
    INDEX 01 03:13:47
  TRACK 141 AUDIO
    TITLE "TOEIC LR Kinnojyukugo_01_0141"
    INDEX 01 03:15:15
  TRACK 142 AUDIO
    TITLE "TOEIC LR Kinnojyukugo_01_0142"
    INDEX 01 03:16:20
  TRACK 143 AUDIO
    TITLE "TOEIC LR Kinnojyukugo_01_0143"
    INDEX 01 03:17:33
  TRACK 144 AUDIO
    TITLE "TOEIC LR Kinnojyukugo_01_0144"
    INDEX 01 03:17:72
  TRACK 145 AUDIO
    TITLE "TOEIC LR Kinnojyukugo_01_0145"
    INDEX 01 03:19:30
  TRACK 146 AUDIO
    TITLE "TOEIC LR Kinnojyukugo_01_0146"
    INDEX 01 03:19:73
  TRACK 147 AUDIO
    TITLE "TOEIC LR Kinnojyukugo_01_0147"
    INDEX 01 03:22:48
  TRACK 148 AUDIO
    TITLE "TOEIC LR Kinnojyukugo_01_0148"
    INDEX 01 03:23:14
  TRACK 149 AUDIO
    TITLE "TOEIC LR Kinnojyukugo_01_0149"
    INDEX 01 03:25:36
  TRACK 150 AUDIO
    TITLE "TOEIC LR Kinnojyukugo_01_0150"
    INDEX 01 03:25:60
  TRACK 151 AUDIO
    TITLE "TOEIC LR Kinnojyukugo_01_0151"
    INDEX 01 03:28:09
  TRACK 152 AUDIO
    TITLE "TOEIC LR Kinnojyukugo_01_0152"
    INDEX 01 03:29:09
  TRACK 153 AUDIO
    TITLE "TOEIC LR Kinnojyukugo_01_0153"
    INDEX 01 03:30:43
  TRACK 154 AUDIO
    TITLE "TOEIC LR Kinnojyukugo_01_0154"
    INDEX 01 03:31:08
  TRACK 155 AUDIO
    TITLE "TOEIC LR Kinnojyukugo_01_0155"
    INDEX 01 03:32:27
  TRACK 156 AUDIO
    TITLE "TOEIC LR Kinnojyukugo_01_0156"
    INDEX 01 03:32:66
  TRACK 157 AUDIO
    TITLE "TOEIC LR Kinnojyukugo_01_0157"
    INDEX 01 03:34:55
  TRACK 158 AUDIO
    TITLE "TOEIC LR Kinnojyukugo_01_0158"
    INDEX 01 03:35:17
  TRACK 159 AUDIO
    TITLE "TOEIC LR Kinnojyukugo_01_0159"
    INDEX 01 03:37:45
  TRACK 160 AUDIO
    TITLE "TOEIC LR Kinnojyukugo_01_0160"
    INDEX 01 03:37:69
  TRACK 161 AUDIO
    TITLE "TOEIC LR Kinnojyukugo_01_0161"
    INDEX 01 03:40:20
  TRACK 162 AUDIO
    TITLE "TOEIC LR Kinnojyukugo_01_0162"
    INDEX 01 03:41:22
  TRACK 163 AUDIO
    TITLE "TOEIC LR Kinnojyukugo_01_0163"
    INDEX 01 03:42:23
  TRACK 164 AUDIO
    TITLE "TOEIC LR Kinnojyukugo_01_0164"
    INDEX 01 03:42:60
  TRACK 165 AUDIO
    TITLE "TOEIC LR Kinnojyukugo_01_0165"
    INDEX 01 03:46:68
  TRACK 166 AUDIO
    TITLE "TOEIC LR Kinnojyukugo_01_0166"
    INDEX 01 03:47:30
  TRACK 167 AUDIO
    TITLE "TOEIC LR Kinnojyukugo_01_0167"
    INDEX 01 03:49:47
  TRACK 168 AUDIO
    TITLE "TOEIC LR Kinnojyukugo_01_0168"
    INDEX 01 03:50:09
  TRACK 169 AUDIO
    TITLE "TOEIC LR Kinnojyukugo_01_0169"
    INDEX 01 03:52:14
  TRACK 170 AUDIO
    TITLE "TOEIC LR Kinnojyukugo_01_0170"
    INDEX 01 03:52:37
  TRACK 171 AUDIO
    TITLE "TOEIC LR Kinnojyukugo_01_0171"
    INDEX 01 03:54:42
  TRACK 172 AUDIO
    TITLE "TOEIC LR Kinnojyukugo_01_0172"
    INDEX 01 03:55:40
  TRACK 173 AUDIO
    TITLE "TOEIC LR Kinnojyukugo_01_0173"
    INDEX 01 03:56:61
  TRACK 174 AUDIO
    TITLE "TOEIC LR Kinnojyukugo_01_0174"
    INDEX 01 03:57:21
  TRACK 175 AUDIO
    TITLE "TOEIC LR Kinnojyukugo_01_0175"
    INDEX 01 03:58:38
  TRACK 176 AUDIO
    TITLE "TOEIC LR Kinnojyukugo_01_0176"
    INDEX 01 03:59:00
  TRACK 177 AUDIO
    TITLE "TOEIC LR Kinnojyukugo_01_0177"
    INDEX 01 04:02:20
  TRACK 178 AUDIO
    TITLE "TOEIC LR Kinnojyukugo_01_0178"
    INDEX 01 04:02:57
  TRACK 179 AUDIO
    TITLE "TOEIC LR Kinnojyukugo_01_0179"
    INDEX 01 04:05:59
  TRACK 180 AUDIO
    TITLE "TOEIC LR Kinnojyukugo_01_0180"
    INDEX 01 04:06:08
  TRACK 181 AUDIO
    TITLE "TOEIC LR Kinnojyukugo_01_0181"
    INDEX 01 04:09:10
  TRACK 182 AUDIO
    TITLE "TOEIC LR Kinnojyukugo_01_0182"
    INDEX 01 04:10:08
  TRACK 183 AUDIO
    TITLE "TOEIC LR Kinnojyukugo_01_0183"
    INDEX 01 04:11:37
  TRACK 184 AUDIO
    TITLE "TOEIC LR Kinnojyukugo_01_0184"
    INDEX 01 04:11:72
  TRACK 185 AUDIO
    TITLE "TOEIC LR Kinnojyukugo_01_0185"
    INDEX 01 04:14:09
  TRACK 186 AUDIO
    TITLE "TOEIC LR Kinnojyukugo_01_0186"
    INDEX 01 04:14:45
  TRACK 187 AUDIO
    TITLE "TOEIC LR Kinnojyukugo_01_0187"
    INDEX 01 04:17:27
  TRACK 188 AUDIO
    TITLE "TOEIC LR Kinnojyukugo_01_0188"
    INDEX 01 04:17:65
  TRACK 189 AUDIO
    TITLE "TOEIC LR Kinnojyukugo_01_0189"
    INDEX 01 04:21:13
  TRACK 190 AUDIO
    TITLE "TOEIC LR Kinnojyukugo_01_0190"
    INDEX 01 04:21:37
  TRACK 191 AUDIO
    TITLE "TOEIC LR Kinnojyukugo_01_0191"
    INDEX 01 04:24:61
  TRACK 192 AUDIO
    TITLE "TOEIC LR Kinnojyukugo_01_0192"
    INDEX 01 04:25:60
  TRACK 193 AUDIO
    TITLE "TOEIC LR Kinnojyukugo_01_0193"
    INDEX 01 04:27:06
  TRACK 194 AUDIO
    TITLE "TOEIC LR Kinnojyukugo_01_0194"
    INDEX 01 04:27:43
  TRACK 195 AUDIO
    TITLE "TOEIC LR Kinnojyukugo_01_0195"
    INDEX 01 04:29:54
  TRACK 196 AUDIO
    TITLE "TOEIC LR Kinnojyukugo_01_0196"
    INDEX 01 04:30:14
  TRACK 197 AUDIO
    TITLE "TOEIC LR Kinnojyukugo_01_0197"
    INDEX 01 04:31:55
  TRACK 198 AUDIO
    TITLE "TOEIC LR Kinnojyukugo_01_0198"
    INDEX 01 04:32:17
  TRACK 199 AUDIO
    TITLE "TOEIC LR Kinnojyukugo_01_0199"
    INDEX 01 04:34:04
  TRACK 200 AUDIO
    TITLE "TOEIC LR Kinnojyukugo_01_0200"
    INDEX 01 04:34:30
  TRACK 201 AUDIO
    TITLE "TOEIC LR Kinnojyukugo_01_0201"
    INDEX 01 04:36:17
  TRACK 202 AUDIO
    TITLE "TOEIC LR Kinnojyukugo_01_0202"
    INDEX 01 04:37:16
  TRACK 203 AUDIO
    TITLE "TOEIC LR Kinnojyukugo_01_0203"
    INDEX 01 04:38:71
  TRACK 204 AUDIO
    TITLE "TOEIC LR Kinnojyukugo_01_0204"
    INDEX 01 04:39:35
  TRACK 205 AUDIO
    TITLE "TOEIC LR Kinnojyukugo_01_0205"
    INDEX 01 04:42:68
  TRACK 206 AUDIO
    TITLE "TOEIC LR Kinnojyukugo_01_0206"
    INDEX 01 04:43:33
  TRACK 207 AUDIO
    TITLE "TOEIC LR Kinnojyukugo_01_0207"
    INDEX 01 04:46:37
  TRACK 208 AUDIO
    TITLE "TOEIC LR Kinnojyukugo_01_0208"
    INDEX 01 04:47:03
  TRACK 209 AUDIO
    TITLE "TOEIC LR Kinnojyukugo_01_0209"
    INDEX 01 04:49:47
  TRACK 210 AUDIO
    TITLE "TOEIC LR Kinnojyukugo_01_0210"
    INDEX 01 04:50:01
  TRACK 211 AUDIO
    TITLE "TOEIC LR Kinnojyukugo_01_0211"
    INDEX 01 04:52:41
  TRACK 212 AUDIO
    TITLE "TOEIC LR Kinnojyukugo_01_0212"
    INDEX 01 04:53:45
  TRACK 213 AUDIO
    TITLE "TOEIC LR Kinnojyukugo_01_0213"
    INDEX 01 04:54:52
  TRACK 214 AUDIO
    TITLE "TOEIC LR Kinnojyukugo_01_0214"
    INDEX 01 04:55:16
  TRACK 215 AUDIO
    TITLE "TOEIC LR Kinnojyukugo_01_0215"
    INDEX 01 04:58:13
  TRACK 216 AUDIO
    TITLE "TOEIC LR Kinnojyukugo_01_0216"
    INDEX 01 04:58:52
  TRACK 217 AUDIO
    TITLE "TOEIC LR Kinnojyukugo_01_0217"
    INDEX 01 05:01:72
  TRACK 218 AUDIO
    TITLE "TOEIC LR Kinnojyukugo_01_0218"
    INDEX 01 05:02:40
  TRACK 219 AUDIO
    TITLE "TOEIC LR Kinnojyukugo_01_0219"
    INDEX 01 05:05:40
  TRACK 220 AUDIO
    TITLE "TOEIC LR Kinnojyukugo_01_0220"
    INDEX 01 05:05:70
  TRACK 221 AUDIO
    TITLE "TOEIC LR Kinnojyukugo_01_0221"
    INDEX 01 05:08:68
  TRACK 222 AUDIO
    TITLE "TOEIC LR Kinnojyukugo_01_0222"
    INDEX 01 05:09:69
  TRACK 223 AUDIO
    TITLE "TOEIC LR Kinnojyukugo_01_0223"
    INDEX 01 05:11:17
  TRACK 224 AUDIO
    TITLE "TOEIC LR Kinnojyukugo_01_0224"
    INDEX 01 05:11:56
  TRACK 225 AUDIO
    TITLE "TOEIC LR Kinnojyukugo_01_0225"
    INDEX 01 05:13:12
  TRACK 226 AUDIO
    TITLE "TOEIC LR Kinnojyukugo_01_0226"
    INDEX 01 05:13:49
  TRACK 227 AUDIO
    TITLE "TOEIC LR Kinnojyukugo_01_0227"
    INDEX 01 05:16:63
  TRACK 228 AUDIO
    TITLE "TOEIC LR Kinnojyukugo_01_0228"
    INDEX 01 05:17:33
  TRACK 229 AUDIO
    TITLE "TOEIC LR Kinnojyukugo_01_0229"
    INDEX 01 05:20:02
  TRACK 230 AUDIO
    TITLE "TOEIC LR Kinnojyukugo_01_0230"
    INDEX 01 05:20:28
  TRACK 231 AUDIO
    TITLE "TOEIC LR Kinnojyukugo_01_0231"
    INDEX 01 05:22:74
  TRACK 232 AUDIO
    TITLE "TOEIC LR Kinnojyukugo_01_0232"
    INDEX 01 05:23:73
  TRACK 233 AUDIO
    TITLE "TOEIC LR Kinnojyukugo_01_0233"
    INDEX 01 05:25:13
  TRACK 234 AUDIO
    TITLE "TOEIC LR Kinnojyukugo_01_0234"
    INDEX 01 05:25:53
  TRACK 235 AUDIO
    TITLE "TOEIC LR Kinnojyukugo_01_0235"
    INDEX 01 05:28:20
  TRACK 236 AUDIO
    TITLE "TOEIC LR Kinnojyukugo_01_0236"
    INDEX 01 05:28:69
  TRACK 237 AUDIO
    TITLE "TOEIC LR Kinnojyukugo_01_0237"
    INDEX 01 05:33:58
  TRACK 238 AUDIO
    TITLE "TOEIC LR Kinnojyukugo_01_0238"
    INDEX 01 05:34:20
  TRACK 239 AUDIO
    TITLE "TOEIC LR Kinnojyukugo_01_0239"
    INDEX 01 05:37:58
  TRACK 240 AUDIO
    TITLE "TOEIC LR Kinnojyukugo_01_0240"
    INDEX 01 05:38:08
  TRACK 241 AUDIO
    TITLE "TOEIC LR Kinnojyukugo_01_0241"
    INDEX 01 05:41:44
  TRACK 242 AUDIO
    TITLE "TOEIC LR Kinnojyukugo_01_0242"
    INDEX 01 05:42:45
  TRACK 243 AUDIO
    TITLE "TOEIC LR Kinnojyukugo_01_0243"
    INDEX 01 05:44:07
  TRACK 244 AUDIO
    TITLE "TOEIC LR Kinnojyukugo_01_0244"
    INDEX 01 05:44:46
  TRACK 245 AUDIO
    TITLE "TOEIC LR Kinnojyukugo_01_0245"
    INDEX 01 05:47:46
  TRACK 246 AUDIO
    TITLE "TOEIC LR Kinnojyukugo_01_0246"
    INDEX 01 05:48:13
  TRACK 247 AUDIO
    TITLE "TOEIC LR Kinnojyukugo_01_0247"
    INDEX 01 05:51:27
  TRACK 248 AUDIO
    TITLE "TOEIC LR Kinnojyukugo_01_0248"
    INDEX 01 05:51:66
  TRACK 249 AUDIO
    TITLE "TOEIC LR Kinnojyukugo_01_0249"
    INDEX 01 05:54:33
  TRACK 250 AUDIO
    TITLE "TOEIC LR Kinnojyukugo_01_0250"
    INDEX 01 05:54:58
  TRACK 251 AUDIO
    TITLE "TOEIC LR Kinnojyukugo_01_0251"
    INDEX 01 05:57:25
  TRACK 252 AUDIO
    TITLE "TOEIC LR Kinnojyukugo_01_0252"
    INDEX 01 05:58:25
  TRACK 253 AUDIO
    TITLE "TOEIC LR Kinnojyukugo_01_0253"
    INDEX 01 05:59:57
  TRACK 254 AUDIO
    TITLE "TOEIC LR Kinnojyukugo_01_0254"
    INDEX 01 06:00:16
  TRACK 255 AUDIO
    TITLE "TOEIC LR Kinnojyukugo_01_0255"
    INDEX 01 06:03:00
  TRACK 256 AUDIO
    TITLE "TOEIC LR Kinnojyukugo_01_0256"
    INDEX 01 06:03:38
  TRACK 257 AUDIO
    TITLE "TOEIC LR Kinnojyukugo_01_0257"
    INDEX 01 06:06:34
  TRACK 258 AUDIO
    TITLE "TOEIC LR Kinnojyukugo_01_0258"
    INDEX 01 06:06:73
  TRACK 259 AUDIO
    TITLE "TOEIC LR Kinnojyukugo_01_0259"
    INDEX 01 06:09:03
  TRACK 260 AUDIO
    TITLE "TOEIC LR Kinnojyukugo_01_0260"
    INDEX 01 06:09:28
  TRACK 261 AUDIO
    TITLE "TOEIC LR Kinnojyukugo_01_0261"
    INDEX 01 06:11:33
  TRACK 262 AUDIO
    TITLE "TOEIC LR Kinnojyukugo_01_0262"
    INDEX 01 06:12:33
  TRACK 263 AUDIO
    TITLE "TOEIC LR Kinnojyukugo_01_0263"
    INDEX 01 06:13:67
  TRACK 264 AUDIO
    TITLE "TOEIC LR Kinnojyukugo_01_0264"
    INDEX 01 06:14:33
  TRACK 265 AUDIO
    TITLE "TOEIC LR Kinnojyukugo_01_0265"
    INDEX 01 06:15:51
  TRACK 266 AUDIO
    TITLE "TOEIC LR Kinnojyukugo_01_0266"
    INDEX 01 06:16:15
  TRACK 267 AUDIO
    TITLE "TOEIC LR Kinnojyukugo_01_0267"
    INDEX 01 06:17:49
  TRACK 268 AUDIO
    TITLE "TOEIC LR Kinnojyukugo_01_0268"
    INDEX 01 06:18:12
  TRACK 269 AUDIO
    TITLE "TOEIC LR Kinnojyukugo_01_0269"
    INDEX 01 06:20:01
  TRACK 270 AUDIO
    TITLE "TOEIC LR Kinnojyukugo_01_0270"
    INDEX 01 06:20:28
  TRACK 271 AUDIO
    TITLE "TOEIC LR Kinnojyukugo_01_0271"
    INDEX 01 06:22:15
  TRACK 272 AUDIO
    TITLE "TOEIC LR Kinnojyukugo_01_0272"
    INDEX 01 06:23:17
  TRACK 273 AUDIO
    TITLE "TOEIC LR Kinnojyukugo_01_0273"
    INDEX 01 06:24:32
  TRACK 274 AUDIO
    TITLE "TOEIC LR Kinnojyukugo_01_0274"
    INDEX 01 06:24:71
  TRACK 275 AUDIO
    TITLE "TOEIC LR Kinnojyukugo_01_0275"
    INDEX 01 06:26:62
  TRACK 276 AUDIO
    TITLE "TOEIC LR Kinnojyukugo_01_0276"
    INDEX 01 06:27:24
  TRACK 277 AUDIO
    TITLE "TOEIC LR Kinnojyukugo_01_0277"
    INDEX 01 06:29:72
  TRACK 278 AUDIO
    TITLE "TOEIC LR Kinnojyukugo_01_0278"
    INDEX 01 06:30:36
  TRACK 279 AUDIO
    TITLE "TOEIC LR Kinnojyukugo_01_0279"
    INDEX 01 06:32:41
  TRACK 280 AUDIO
    TITLE "TOEIC LR Kinnojyukugo_01_0280"
    INDEX 01 06:32:69
  TRACK 281 AUDIO
    TITLE "TOEIC LR Kinnojyukugo_01_0281"
    INDEX 01 06:34:73
  TRACK 282 AUDIO
    TITLE "TOEIC LR Kinnojyukugo_01_0282"
    INDEX 01 06:36:00
  TRACK 283 AUDIO
    TITLE "TOEIC LR Kinnojyukugo_01_0283"
    INDEX 01 06:37:23
  TRACK 284 AUDIO
    TITLE "TOEIC LR Kinnojyukugo_01_0284"
    INDEX 01 06:37:62
  TRACK 285 AUDIO
    TITLE "TOEIC LR Kinnojyukugo_01_0285"
    INDEX 01 06:39:24
  TRACK 286 AUDIO
    TITLE "TOEIC LR Kinnojyukugo_01_0286"
    INDEX 01 06:39:67
  TRACK 287 AUDIO
    TITLE "TOEIC LR Kinnojyukugo_01_0287"
    INDEX 01 06:42:36
  TRACK 288 AUDIO
    TITLE "TOEIC LR Kinnojyukugo_01_0288"
    INDEX 01 06:43:15
  TRACK 289 AUDIO
    TITLE "TOEIC LR Kinnojyukugo_01_0289"
    INDEX 01 06:45:36
  TRACK 290 AUDIO
    TITLE "TOEIC LR Kinnojyukugo_01_0290"
    INDEX 01 06:45:63
  TRACK 291 AUDIO
    TITLE "TOEIC LR Kinnojyukugo_01_0291"
    INDEX 01 06:48:13
  TRACK 292 AUDIO
    TITLE "TOEIC LR Kinnojyukugo_01_0292"
    INDEX 01 06:49:12
  TRACK 293 AUDIO
    TITLE "TOEIC LR Kinnojyukugo_01_0293"
    INDEX 01 06:50:29
  TRACK 294 AUDIO
    TITLE "TOEIC LR Kinnojyukugo_01_0294"
    INDEX 01 06:50:68
  TRACK 295 AUDIO
    TITLE "TOEIC LR Kinnojyukugo_01_0295"
    INDEX 01 06:53:49
  TRACK 296 AUDIO
    TITLE "TOEIC LR Kinnojyukugo_01_0296"
    INDEX 01 06:54:13
  TRACK 297 AUDIO
    TITLE "TOEIC LR Kinnojyukugo_01_0297"
    INDEX 01 06:56:73
  TRACK 298 AUDIO
    TITLE "TOEIC LR Kinnojyukugo_01_0298"
    INDEX 01 06:57:35
  TRACK 299 AUDIO
    TITLE "TOEIC LR Kinnojyukugo_01_0299"
    INDEX 01 06:59:26
  TRACK 300 AUDIO
    TITLE "TOEIC LR Kinnojyukugo_01_0300"
    INDEX 01 06:59:58
  TRACK 301 AUDIO
    TITLE "TOEIC LR Kinnojyukugo_01_0301"
    INDEX 01 07:01:55
  TRACK 302 AUDIO
    TITLE "TOEIC LR Kinnojyukugo_01_0302"
    INDEX 01 07:02:56
  TRACK 303 AUDIO
    TITLE "TOEIC LR Kinnojyukugo_01_0303"
    INDEX 01 07:03:69
  TRACK 304 AUDIO
    TITLE "TOEIC LR Kinnojyukugo_01_0304"
    INDEX 01 07:04:29
  TRACK 305 AUDIO
    TITLE "TOEIC LR Kinnojyukugo_01_0305"
    INDEX 01 07:06:01
  TRACK 306 AUDIO
    TITLE "TOEIC LR Kinnojyukugo_01_0306"
    INDEX 01 07:06:38
  TRACK 307 AUDIO
    TITLE "TOEIC LR Kinnojyukugo_01_0307"
    INDEX 01 07:09:36
  TRACK 308 AUDIO
    TITLE "TOEIC LR Kinnojyukugo_01_0308"
    INDEX 01 07:10:03
  TRACK 309 AUDIO
    TITLE "TOEIC LR Kinnojyukugo_01_0309"
    INDEX 01 07:12:23
  TRACK 310 AUDIO
    TITLE "TOEIC LR Kinnojyukugo_01_0310"
    INDEX 01 07:12:48
  TRACK 311 AUDIO
    TITLE "TOEIC LR Kinnojyukugo_01_0311"
    INDEX 01 07:14:67
  TRACK 312 AUDIO
    TITLE "TOEIC LR Kinnojyukugo_01_0312"
    INDEX 01 07:15:66
  TRACK 313 AUDIO
    TITLE "TOEIC LR Kinnojyukugo_01_0313"
    INDEX 01 07:17:18
  TRACK 314 AUDIO
    TITLE "TOEIC LR Kinnojyukugo_01_0314"
    INDEX 01 07:17:57
  TRACK 315 AUDIO
    TITLE "TOEIC LR Kinnojyukugo_01_0315"
    INDEX 01 07:18:65
  TRACK 316 AUDIO
    TITLE "TOEIC LR Kinnojyukugo_01_0316"
    INDEX 01 07:19:27
  TRACK 317 AUDIO
    TITLE "TOEIC LR Kinnojyukugo_01_0317"
    INDEX 01 07:22:31
  TRACK 318 AUDIO
    TITLE "TOEIC LR Kinnojyukugo_01_0318"
    INDEX 01 07:22:70
  TRACK 319 AUDIO
    TITLE "TOEIC LR Kinnojyukugo_01_0319"
    INDEX 01 07:25:45
  TRACK 320 AUDIO
    TITLE "TOEIC LR Kinnojyukugo_01_0320"
    INDEX 01 07:25:67
  TRACK 321 AUDIO
    TITLE "TOEIC LR Kinnojyukugo_01_0321"
    INDEX 01 07:28:42
  TRACK 322 AUDIO
    TITLE "TOEIC LR Kinnojyukugo_01_0322"
    INDEX 01 07:29:41
  TRACK 323 AUDIO
    TITLE "TOEIC LR Kinnojyukugo_01_0323"
    INDEX 01 07:30:50
  TRACK 324 AUDIO
    TITLE "TOEIC LR Kinnojyukugo_01_0324"
    INDEX 01 07:31:13
  TRACK 325 AUDIO
    TITLE "TOEIC LR Kinnojyukugo_01_0325"
    INDEX 01 07:32:37
  TRACK 326 AUDIO
    TITLE "TOEIC LR Kinnojyukugo_01_0326"
    INDEX 01 07:33:02
  TRACK 327 AUDIO
    TITLE "TOEIC LR Kinnojyukugo_01_0327"
    INDEX 01 07:36:39
  TRACK 328 AUDIO
    TITLE "TOEIC LR Kinnojyukugo_01_0328"
    INDEX 01 07:37:01
  TRACK 329 AUDIO
    TITLE "TOEIC LR Kinnojyukugo_01_0329"
    INDEX 01 07:40:27
  TRACK 330 AUDIO
    TITLE "TOEIC LR Kinnojyukugo_01_0330"
    INDEX 01 07:40:53
  TRACK 331 AUDIO
    TITLE "TOEIC LR Kinnojyukugo_01_0331"
    INDEX 01 07:44:01
  TRACK 332 AUDIO
    TITLE "TOEIC LR Kinnojyukugo_01_0332"
    INDEX 01 07:45:03
  TRACK 333 AUDIO
    TITLE "TOEIC LR Kinnojyukugo_01_0333"
    INDEX 01 07:46:55
  TRACK 334 AUDIO
    TITLE "TOEIC LR Kinnojyukugo_01_0334"
    INDEX 01 07:47:17
  TRACK 335 AUDIO
    TITLE "TOEIC LR Kinnojyukugo_01_0335"
    INDEX 01 07:48:60
  TRACK 336 AUDIO
    TITLE "TOEIC LR Kinnojyukugo_01_0336"
    INDEX 01 07:49:24
  TRACK 337 AUDIO
    TITLE "TOEIC LR Kinnojyukugo_01_0337"
    INDEX 01 07:52:17
  TRACK 338 AUDIO
    TITLE "TOEIC LR Kinnojyukugo_01_0338"
    INDEX 01 07:52:56
  TRACK 339 AUDIO
    TITLE "TOEIC LR Kinnojyukugo_01_0339"
    INDEX 01 07:55:72
  TRACK 340 AUDIO
    TITLE "TOEIC LR Kinnojyukugo_01_0340"
    INDEX 01 07:56:20
  TRACK 341 AUDIO
    TITLE "TOEIC LR Kinnojyukugo_01_0341"
    INDEX 01 07:59:36
  TRACK 342 AUDIO
    TITLE "TOEIC LR Kinnojyukugo_01_0342"
    INDEX 01 08:00:42
  TRACK 343 AUDIO
    TITLE "TOEIC LR Kinnojyukugo_01_0343"
    INDEX 01 08:01:67
  TRACK 344 AUDIO
    TITLE "TOEIC LR Kinnojyukugo_01_0344"
    INDEX 01 08:02:33
  TRACK 345 AUDIO
    TITLE "TOEIC LR Kinnojyukugo_01_0345"
    INDEX 01 08:03:44
  TRACK 346 AUDIO
    TITLE "TOEIC LR Kinnojyukugo_01_0346"
    INDEX 01 08:04:06
  TRACK 347 AUDIO
    TITLE "TOEIC LR Kinnojyukugo_01_0347"
    INDEX 01 08:06:30
  TRACK 348 AUDIO
    TITLE "TOEIC LR Kinnojyukugo_01_0348"
    INDEX 01 08:06:70
  TRACK 349 AUDIO
    TITLE "TOEIC LR Kinnojyukugo_01_0349"
    INDEX 01 08:09:37
  TRACK 350 AUDIO
    TITLE "TOEIC LR Kinnojyukugo_01_0350"
    INDEX 01 08:09:60
  TRACK 351 AUDIO
    TITLE "TOEIC LR Kinnojyukugo_01_0351"
    INDEX 01 08:12:25
  TRACK 352 AUDIO
    TITLE "TOEIC LR Kinnojyukugo_01_0352"
    INDEX 01 08:13:27
  TRACK 353 AUDIO
    TITLE "TOEIC LR Kinnojyukugo_01_0353"
    INDEX 01 08:14:69
  TRACK 354 AUDIO
    TITLE "TOEIC LR Kinnojyukugo_01_0354"
    INDEX 01 08:15:35
  TRACK 355 AUDIO
    TITLE "TOEIC LR Kinnojyukugo_01_0355"
    INDEX 01 08:16:74
  TRACK 356 AUDIO
    TITLE "TOEIC LR Kinnojyukugo_01_0356"
    INDEX 01 08:17:38
  TRACK 357 AUDIO
    TITLE "TOEIC LR Kinnojyukugo_01_0357"
    INDEX 01 08:19:61
  TRACK 358 AUDIO
    TITLE "TOEIC LR Kinnojyukugo_01_0358"
    INDEX 01 08:20:23
  TRACK 359 AUDIO
    TITLE "TOEIC LR Kinnojyukugo_01_0359"
    INDEX 01 08:22:61
  TRACK 360 AUDIO
    TITLE "TOEIC LR Kinnojyukugo_01_0360"
    INDEX 01 08:23:07
  TRACK 361 AUDIO
    TITLE "TOEIC LR Kinnojyukugo_01_0361"
    INDEX 01 08:25:46
  TRACK 362 AUDIO
    TITLE "TOEIC LR Kinnojyukugo_01_0362"
    INDEX 01 08:26:45
  TRACK 363 AUDIO
    TITLE "TOEIC LR Kinnojyukugo_01_0363"
    INDEX 01 08:27:54
  TRACK 364 AUDIO
    TITLE "TOEIC LR Kinnojyukugo_01_0364"
    INDEX 01 08:28:14
  TRACK 365 AUDIO
    TITLE "TOEIC LR Kinnojyukugo_01_0365"
    INDEX 01 08:29:30
  TRACK 366 AUDIO
    TITLE "TOEIC LR Kinnojyukugo_01_0366"
    INDEX 01 08:29:67
  TRACK 367 AUDIO
    TITLE "TOEIC LR Kinnojyukugo_01_0367"
    INDEX 01 08:32:71
  TRACK 368 AUDIO
    TITLE "TOEIC LR Kinnojyukugo_01_0368"
    INDEX 01 08:33:35
  TRACK 369 AUDIO
    TITLE "TOEIC LR Kinnojyukugo_01_0369"
    INDEX 01 08:36:20
  TRACK 370 AUDIO
    TITLE "TOEIC LR Kinnojyukugo_01_0370"
    INDEX 01 08:36:45
  TRACK 371 AUDIO
    TITLE "TOEIC LR Kinnojyukugo_01_0371"
    INDEX 01 08:39:30
  TRACK 372 AUDIO
    TITLE "TOEIC LR Kinnojyukugo_01_0372"
    INDEX 01 08:40:29
  TRACK 373 AUDIO
    TITLE "TOEIC LR Kinnojyukugo_01_0373"
    INDEX 01 08:42:09
  TRACK 374 AUDIO
    TITLE "TOEIC LR Kinnojyukugo_01_0374"
    INDEX 01 08:42:46
  TRACK 375 AUDIO
    TITLE "TOEIC LR Kinnojyukugo_01_0375"
    INDEX 01 08:44:15
  TRACK 376 AUDIO
    TITLE "TOEIC LR Kinnojyukugo_01_0376"
    INDEX 01 08:44:55
  TRACK 377 AUDIO
    TITLE "TOEIC LR Kinnojyukugo_01_0377"
    INDEX 01 08:47:16
  TRACK 378 AUDIO
    TITLE "TOEIC LR Kinnojyukugo_01_0378"
    INDEX 01 08:47:53
  TRACK 379 AUDIO
    TITLE "TOEIC LR Kinnojyukugo_01_0379"
    INDEX 01 08:50:16
  TRACK 380 AUDIO
    TITLE "TOEIC LR Kinnojyukugo_01_0380"
    INDEX 01 08:50:42
  TRACK 381 AUDIO
    TITLE "TOEIC LR Kinnojyukugo_01_0381"
    INDEX 01 08:52:70
  TRACK 382 AUDIO
    TITLE "TOEIC LR Kinnojyukugo_01_0382"
    INDEX 01 08:54:10
  TRACK 383 AUDIO
    TITLE "TOEIC LR Kinnojyukugo_01_0383"
    INDEX 01 08:55:29
  TRACK 384 AUDIO
    TITLE "TOEIC LR Kinnojyukugo_01_0384"
    INDEX 01 08:55:68
  TRACK 385 AUDIO
    TITLE "TOEIC LR Kinnojyukugo_01_0385"
    INDEX 01 08:57:08
  TRACK 386 AUDIO
    TITLE "TOEIC LR Kinnojyukugo_01_0386"
    INDEX 01 08:57:47
  TRACK 387 AUDIO
    TITLE "TOEIC LR Kinnojyukugo_01_0387"
    INDEX 01 08:59:29
  TRACK 388 AUDIO
    TITLE "TOEIC LR Kinnojyukugo_01_0388"
    INDEX 01 08:59:68
  TRACK 389 AUDIO
    TITLE "TOEIC LR Kinnojyukugo_01_0389"
    INDEX 01 09:01:63
  TRACK 390 AUDIO
    TITLE "TOEIC LR Kinnojyukugo_01_0390"
    INDEX 01 09:02:13
  TRACK 391 AUDIO
    TITLE "TOEIC LR Kinnojyukugo_01_0391"
    INDEX 01 09:04:08
  TRACK 392 AUDIO
    TITLE "TOEIC LR Kinnojyukugo_01_0392"
    INDEX 01 09:05:08
  TRACK 393 AUDIO
    TITLE "TOEIC LR Kinnojyukugo_01_0393"
    INDEX 01 09:06:33
  TRACK 394 AUDIO
    TITLE "TOEIC LR Kinnojyukugo_01_0394"
    INDEX 01 09:06:70
  TRACK 395 AUDIO
    TITLE "TOEIC LR Kinnojyukugo_01_0395"
    INDEX 01 09:10:13
  TRACK 396 AUDIO
    TITLE "TOEIC LR Kinnojyukugo_01_0396"
    INDEX 01 09:10:50
  TRACK 397 AUDIO
    TITLE "TOEIC LR Kinnojyukugo_01_0397"
    INDEX 01 09:13:60
  TRACK 398 AUDIO
    TITLE "TOEIC LR Kinnojyukugo_01_0398"
    INDEX 01 09:14:22
  TRACK 399 AUDIO
    TITLE "TOEIC LR Kinnojyukugo_01_0399"
    INDEX 01 09:16:45
  TRACK 400 AUDIO
    TITLE "TOEIC LR Kinnojyukugo_01_0400"
    INDEX 01 09:16:72
  TRACK 401 AUDIO
    TITLE "TOEIC LR Kinnojyukugo_01_0401"
    INDEX 01 09:19:22
  TRACK 402 AUDIO
    TITLE "TOEIC LR Kinnojyukugo_01_0402"
    INDEX 01 09:20:23
  TRACK 403 AUDIO
    TITLE "TOEIC LR Kinnojyukugo_01_0403"
    INDEX 01 09:21:46
  TRACK 404 AUDIO
    TITLE "TOEIC LR Kinnojyukugo_01_0404"
    INDEX 01 09:22:08
  TRACK 405 AUDIO
    TITLE "TOEIC LR Kinnojyukugo_01_0405"
    INDEX 01 09:23:16
  TRACK 406 AUDIO
    TITLE "TOEIC LR Kinnojyukugo_01_0406"
    INDEX 01 09:23:57
  TRACK 407 AUDIO
    TITLE "TOEIC LR Kinnojyukugo_01_0407"
    INDEX 01 09:25:54
  TRACK 408 AUDIO
    TITLE "TOEIC LR Kinnojyukugo_01_0408"
    INDEX 01 09:26:20
  TRACK 409 AUDIO
    TITLE "TOEIC LR Kinnojyukugo_01_0409"
    INDEX 01 09:28:07
  TRACK 410 AUDIO
    TITLE "TOEIC LR Kinnojyukugo_01_0410"
    INDEX 01 09:28:32
  TRACK 411 AUDIO
    TITLE "TOEIC LR Kinnojyukugo_01_0411"
    INDEX 01 09:30:19
  TRACK 412 AUDIO
    TITLE "TOEIC LR Kinnojyukugo_01_0412"
    INDEX 01 09:31:21
  TRACK 413 AUDIO
    TITLE "TOEIC LR Kinnojyukugo_01_0413"
    INDEX 01 09:32:67
  TRACK 414 AUDIO
    TITLE "TOEIC LR Kinnojyukugo_01_0414"
    INDEX 01 09:33:30
  TRACK 415 AUDIO
    TITLE "TOEIC LR Kinnojyukugo_01_0415"
    INDEX 01 09:35:66
  TRACK 416 AUDIO
    TITLE "TOEIC LR Kinnojyukugo_01_0416"
    INDEX 01 09:36:44
  TRACK 417 AUDIO
    TITLE "TOEIC LR Kinnojyukugo_01_0417"
    INDEX 01 09:38:52
  TRACK 418 AUDIO
    TITLE "TOEIC LR Kinnojyukugo_01_0418"
    INDEX 01 09:39:16
  TRACK 419 AUDIO
    TITLE "TOEIC LR Kinnojyukugo_01_0419"
    INDEX 01 09:41:37
  TRACK 420 AUDIO
    TITLE "TOEIC LR Kinnojyukugo_01_0420"
    INDEX 01 09:41:64
  TRACK 421 AUDIO
    TITLE "TOEIC LR Kinnojyukugo_01_0421"
    INDEX 01 09:44:10
  TRACK 422 AUDIO
    TITLE "TOEIC LR Kinnojyukugo_01_0422"
    INDEX 01 09:45:13
  TRACK 423 AUDIO
    TITLE "TOEIC LR Kinnojyukugo_01_0423"
    INDEX 01 09:46:32
  TRACK 424 AUDIO
    TITLE "TOEIC LR Kinnojyukugo_01_0424"
    INDEX 01 09:46:69
  TRACK 425 AUDIO
    TITLE "TOEIC LR Kinnojyukugo_01_0425"
    INDEX 01 09:48:15
  TRACK 426 AUDIO
    TITLE "TOEIC LR Kinnojyukugo_01_0426"
    INDEX 01 09:48:55
  TRACK 427 AUDIO
    TITLE "TOEIC LR Kinnojyukugo_01_0427"
    INDEX 01 09:52:17
  TRACK 428 AUDIO
    TITLE "TOEIC LR Kinnojyukugo_01_0428"
    INDEX 01 09:52:58
  TRACK 429 AUDIO
    TITLE "TOEIC LR Kinnojyukugo_01_0429"
    INDEX 01 09:57:44
  TRACK 430 AUDIO
    TITLE "TOEIC LR Kinnojyukugo_01_0430"
    INDEX 01 09:57:69
  TRACK 431 AUDIO
    TITLE "TOEIC LR Kinnojyukugo_01_0431"
    INDEX 01 10:02:57
  TRACK 432 AUDIO
    TITLE "TOEIC LR Kinnojyukugo_01_0432"
    INDEX 01 10:03:54
  TRACK 433 AUDIO
    TITLE "TOEIC LR Kinnojyukugo_01_0433"
    INDEX 01 10:05:10
  TRACK 434 AUDIO
    TITLE "TOEIC LR Kinnojyukugo_01_0434"
    INDEX 01 10:05:51
  TRACK 435 AUDIO
    TITLE "TOEIC LR Kinnojyukugo_01_0435"
    INDEX 01 10:08:22
  TRACK 436 AUDIO
    TITLE "TOEIC LR Kinnojyukugo_01_0436"
    INDEX 01 10:08:61
  TRACK 437 AUDIO
    TITLE "TOEIC LR Kinnojyukugo_01_0437"
    INDEX 01 10:11:20
  TRACK 438 AUDIO
    TITLE "TOEIC LR Kinnojyukugo_01_0438"
    INDEX 01 10:11:60
  TRACK 439 AUDIO
    TITLE "TOEIC LR Kinnojyukugo_01_0439"
    INDEX 01 10:13:70
  TRACK 440 AUDIO
    TITLE "TOEIC LR Kinnojyukugo_01_0440"
    INDEX 01 10:14:21
  TRACK 441 AUDIO
    TITLE "TOEIC LR Kinnojyukugo_01_0441"
    INDEX 01 10:16:29
  TRACK 442 AUDIO
    TITLE "TOEIC LR Kinnojyukugo_01_0442"
    INDEX 01 10:17:31
  TRACK 443 AUDIO
    TITLE "TOEIC LR Kinnojyukugo_01_0443"
    INDEX 01 10:18:42
  TRACK 444 AUDIO
    TITLE "TOEIC LR Kinnojyukugo_01_0444"
    INDEX 01 10:19:04
  TRACK 445 AUDIO
    TITLE "TOEIC LR Kinnojyukugo_01_0445"
    INDEX 01 10:20:08
  TRACK 446 AUDIO
    TITLE "TOEIC LR Kinnojyukugo_01_0446"
    INDEX 01 10:20:45
  TRACK 447 AUDIO
    TITLE "TOEIC LR Kinnojyukugo_01_0447"
    INDEX 01 10:22:73
  TRACK 448 AUDIO
    TITLE "TOEIC LR Kinnojyukugo_01_0448"
    INDEX 01 10:23:37
  TRACK 449 AUDIO
    TITLE "TOEIC LR Kinnojyukugo_01_0449"
    INDEX 01 10:25:42
  TRACK 450 AUDIO
    TITLE "TOEIC LR Kinnojyukugo_01_0450"
    INDEX 01 10:25:69
  TRACK 451 AUDIO
    TITLE "TOEIC LR Kinnojyukugo_01_0451"
    INDEX 01 10:28:01
  TRACK 452 AUDIO
    TITLE "TOEIC LR Kinnojyukugo_01_0452"
    INDEX 01 10:29:01
  TRACK 453 AUDIO
    TITLE "TOEIC LR Kinnojyukugo_01_0453"
    INDEX 01 10:30:14
  TRACK 454 AUDIO
    TITLE "TOEIC LR Kinnojyukugo_01_0454"
    INDEX 01 10:30:53
  TRACK 455 AUDIO
    TITLE "TOEIC LR Kinnojyukugo_01_0455"
    INDEX 01 10:32:48
  TRACK 456 AUDIO
    TITLE "TOEIC LR Kinnojyukugo_01_0456"
    INDEX 01 10:33:12
  TRACK 457 AUDIO
    TITLE "TOEIC LR Kinnojyukugo_01_0457"
    INDEX 01 10:34:41
  TRACK 458 AUDIO
    TITLE "TOEIC LR Kinnojyukugo_01_0458"
    INDEX 01 10:35:03
  TRACK 459 AUDIO
    TITLE "TOEIC LR Kinnojyukugo_01_0459"
    INDEX 01 10:36:46
  TRACK 460 AUDIO
    TITLE "TOEIC LR Kinnojyukugo_01_0460"
    INDEX 01 10:36:69
  TRACK 461 AUDIO
    TITLE "TOEIC LR Kinnojyukugo_01_0461"
    INDEX 01 10:38:39
  TRACK 462 AUDIO
    TITLE "TOEIC LR Kinnojyukugo_01_0462"
    INDEX 01 10:39:36
  TRACK 463 AUDIO
    TITLE "TOEIC LR Kinnojyukugo_01_0463"
    INDEX 01 10:40:63
  TRACK 464 AUDIO
    TITLE "TOEIC LR Kinnojyukugo_01_0464"
    INDEX 01 10:41:25
  TRACK 465 AUDIO
    TITLE "TOEIC LR Kinnojyukugo_01_0465"
    INDEX 01 10:44:00
  TRACK 466 AUDIO
    TITLE "TOEIC LR Kinnojyukugo_01_0466"
    INDEX 01 10:44:34
  TRACK 467 AUDIO
    TITLE "TOEIC LR Kinnojyukugo_01_0467"
    INDEX 01 10:48:14
  TRACK 468 AUDIO
    TITLE "TOEIC LR Kinnojyukugo_01_0468"
    INDEX 01 10:48:57
  TRACK 469 AUDIO
    TITLE "TOEIC LR Kinnojyukugo_01_0469"
    INDEX 01 10:52:29
  TRACK 470 AUDIO
    TITLE "TOEIC LR Kinnojyukugo_01_0470"
    INDEX 01 10:52:53
  TRACK 471 AUDIO
    TITLE "TOEIC LR Kinnojyukugo_01_0471"
    INDEX 01 10:56:23
  TRACK 472 AUDIO
    TITLE "TOEIC LR Kinnojyukugo_01_0472"
    INDEX 01 10:57:26
  TRACK 473 AUDIO
    TITLE "TOEIC LR Kinnojyukugo_01_0473"
    INDEX 01 10:59:00
  TRACK 474 AUDIO
    TITLE "TOEIC LR Kinnojyukugo_01_0474"
    INDEX 01 10:59:37
  TRACK 475 AUDIO
    TITLE "TOEIC LR Kinnojyukugo_01_0475"
    INDEX 01 11:01:18
  TRACK 476 AUDIO
    TITLE "TOEIC LR Kinnojyukugo_01_0476"
    INDEX 01 11:01:57
  TRACK 477 AUDIO
    TITLE "TOEIC LR Kinnojyukugo_01_0477"
    INDEX 01 11:04:17
  TRACK 478 AUDIO
    TITLE "TOEIC LR Kinnojyukugo_01_0478"
    INDEX 01 11:04:56
  TRACK 479 AUDIO
    TITLE "TOEIC LR Kinnojyukugo_01_0479"
    INDEX 01 11:07:03
  TRACK 480 AUDIO
    TITLE "TOEIC LR Kinnojyukugo_01_0480"
    INDEX 01 11:07:29
  TRACK 481 AUDIO
    TITLE "TOEIC LR Kinnojyukugo_01_0481"
    INDEX 01 11:09:51
  TRACK 482 AUDIO
    TITLE "TOEIC LR Kinnojyukugo_01_0482"
    INDEX 01 11:10:51
  TRACK 483 AUDIO
    TITLE "TOEIC LR Kinnojyukugo_01_0483"
    INDEX 01 11:11:68
  TRACK 484 AUDIO
    TITLE "TOEIC LR Kinnojyukugo_01_0484"
    INDEX 01 11:12:30
  TRACK 485 AUDIO
    TITLE "TOEIC LR Kinnojyukugo_01_0485"
    INDEX 01 11:14:33
  TRACK 486 AUDIO
    TITLE "TOEIC LR Kinnojyukugo_01_0486"
    INDEX 01 11:14:70
  TRACK 487 AUDIO
    TITLE "TOEIC LR Kinnojyukugo_01_0487"
    INDEX 01 11:16:71
  TRACK 488 AUDIO
    TITLE "TOEIC LR Kinnojyukugo_01_0488"
    INDEX 01 11:17:29
  TRACK 489 AUDIO
    TITLE "TOEIC LR Kinnojyukugo_01_0489"
    INDEX 01 11:19:63
  TRACK 490 AUDIO
    TITLE "TOEIC LR Kinnojyukugo_01_0490"
    INDEX 01 11:20:08
  TRACK 491 AUDIO
    TITLE "TOEIC LR Kinnojyukugo_01_0491"
    INDEX 01 11:22:40
  TRACK 492 AUDIO
    TITLE "TOEIC LR Kinnojyukugo_01_0492"
    INDEX 01 11:23:41
  TRACK 493 AUDIO
    TITLE "TOEIC LR Kinnojyukugo_01_0493"
    INDEX 01 11:24:64
  TRACK 494 AUDIO
    TITLE "TOEIC LR Kinnojyukugo_01_0494"
    INDEX 01 11:25:29
  TRACK 495 AUDIO
    TITLE "TOEIC LR Kinnojyukugo_01_0495"
    INDEX 01 11:26:61
  TRACK 496 AUDIO
    TITLE "TOEIC LR Kinnojyukugo_01_0496"
    INDEX 01 11:27:26
  TRACK 497 AUDIO
    TITLE "TOEIC LR Kinnojyukugo_01_0497"
    INDEX 01 11:29:62
  TRACK 498 AUDIO
    TITLE "TOEIC LR Kinnojyukugo_01_0498"
    INDEX 01 11:30:26
  TRACK 499 AUDIO
    TITLE "TOEIC LR Kinnojyukugo_01_0499"
    INDEX 01 11:32:35
  TRACK 500 AUDIO
    TITLE "TOEIC LR Kinnojyukugo_01_0500"
    INDEX 01 11:32:60
  TRACK 501 AUDIO
    TITLE "TOEIC LR Kinnojyukugo_01_0501"
    INDEX 01 11:34:69
  TRACK 502 AUDIO
    TITLE "TOEIC LR Kinnojyukugo_01_0502"
    INDEX 01 11:35:70
  TRACK 503 AUDIO
    TITLE "TOEIC LR Kinnojyukugo_01_0503"
    INDEX 01 11:37:22
  TRACK 504 AUDIO
    TITLE "TOEIC LR Kinnojyukugo_01_0504"
    INDEX 01 11:37:61
  TRACK 505 AUDIO
    TITLE "TOEIC LR Kinnojyukugo_01_0505"
    INDEX 01 11:40:34
  TRACK 506 AUDIO
    TITLE "TOEIC LR Kinnojyukugo_01_0506"
    INDEX 01 11:40:73
  TRACK 507 AUDIO
    TITLE "TOEIC LR Kinnojyukugo_01_0507"
    INDEX 01 11:43:11
  TRACK 508 AUDIO
    TITLE "TOEIC LR Kinnojyukugo_01_0508"
    INDEX 01 11:43:46
  TRACK 509 AUDIO
    TITLE "TOEIC LR Kinnojyukugo_01_0509"
    INDEX 01 11:45:10
  TRACK 510 AUDIO
    TITLE "TOEIC LR Kinnojyukugo_01_0510"
    INDEX 01 11:45:41
  TRACK 511 AUDIO
    TITLE "TOEIC LR Kinnojyukugo_01_0511"
    INDEX 01 11:47:05
  TRACK 512 AUDIO
    TITLE "TOEIC LR Kinnojyukugo_01_0512"
    INDEX 01 11:48:14
  TRACK 513 AUDIO
    TITLE "TOEIC LR Kinnojyukugo_01_0513"
    INDEX 01 11:49:51
  TRACK 514 AUDIO
    TITLE "TOEIC LR Kinnojyukugo_01_0514"
    INDEX 01 11:50:11
  TRACK 515 AUDIO
    TITLE "TOEIC LR Kinnojyukugo_01_0515"
    INDEX 01 11:53:15
  TRACK 516 AUDIO
    TITLE "TOEIC LR Kinnojyukugo_01_0516"
    INDEX 01 11:53:52
  TRACK 517 AUDIO
    TITLE "TOEIC LR Kinnojyukugo_01_0517"
    INDEX 01 11:56:13
  TRACK 518 AUDIO
    TITLE "TOEIC LR Kinnojyukugo_01_0518"
    INDEX 01 11:56:53
  TRACK 519 AUDIO
    TITLE "TOEIC LR Kinnojyukugo_01_0519"
    INDEX 01 11:59:28
  TRACK 520 AUDIO
    TITLE "TOEIC LR Kinnojyukugo_01_0520"
    INDEX 01 11:59:49
  TRACK 521 AUDIO
    TITLE "TOEIC LR Kinnojyukugo_01_0521"
    INDEX 01 12:02:26
  TRACK 522 AUDIO
    TITLE "TOEIC LR Kinnojyukugo_01_0522"
    INDEX 01 12:03:21
  TRACK 523 AUDIO
    TITLE "TOEIC LR Kinnojyukugo_01_0523"
    INDEX 01 12:04:50
  TRACK 524 AUDIO
    TITLE "TOEIC LR Kinnojyukugo_01_0524"
    INDEX 01 12:05:16
  TRACK 525 AUDIO
    TITLE "TOEIC LR Kinnojyukugo_01_0525"
    INDEX 01 12:06:59
  TRACK 526 AUDIO
    TITLE "TOEIC LR Kinnojyukugo_01_0526"
    INDEX 01 12:07:25
  TRACK 527 AUDIO
    TITLE "TOEIC LR Kinnojyukugo_01_0527"
    INDEX 01 12:10:18
  TRACK 528 AUDIO
    TITLE "TOEIC LR Kinnojyukugo_01_0528"
    INDEX 01 12:10:59
  TRACK 529 AUDIO
    TITLE "TOEIC LR Kinnojyukugo_01_0529"
    INDEX 01 12:13:08
  TRACK 530 AUDIO
    TITLE "TOEIC LR Kinnojyukugo_01_0530"
    INDEX 01 12:13:35
  TRACK 531 AUDIO
    TITLE "TOEIC LR Kinnojyukugo_01_0531"
    INDEX 01 12:15:62
  TRACK 532 AUDIO
    TITLE "TOEIC LR Kinnojyukugo_01_0532"
    INDEX 01 12:16:63
  TRACK 533 AUDIO
    TITLE "TOEIC LR Kinnojyukugo_01_0533"
    INDEX 01 12:18:03
  TRACK 534 AUDIO
    TITLE "TOEIC LR Kinnojyukugo_01_0534"
    INDEX 01 12:18:41
  TRACK 535 AUDIO
    TITLE "TOEIC LR Kinnojyukugo_01_0535"
    INDEX 01 12:19:48
  TRACK 536 AUDIO
    TITLE "TOEIC LR Kinnojyukugo_01_0536"
    INDEX 01 12:20:12
  TRACK 537 AUDIO
    TITLE "TOEIC LR Kinnojyukugo_01_0537"
    INDEX 01 12:22:60
  TRACK 538 AUDIO
    TITLE "TOEIC LR Kinnojyukugo_01_0538"
    INDEX 01 12:23:26
  TRACK 539 AUDIO
    TITLE "TOEIC LR Kinnojyukugo_01_0539"
    INDEX 01 12:25:45
  TRACK 540 AUDIO
    TITLE "TOEIC LR Kinnojyukugo_01_0540"
    INDEX 01 12:25:70
  TRACK 541 AUDIO
    TITLE "TOEIC LR Kinnojyukugo_01_0541"
    INDEX 01 12:28:13
  TRACK 542 AUDIO
    TITLE "TOEIC LR Kinnojyukugo_01_0542"
    INDEX 01 12:29:15
  TRACK 543 AUDIO
    TITLE "TOEIC LR Kinnojyukugo_01_0543"
    INDEX 01 12:30:20
  TRACK 544 AUDIO
    TITLE "TOEIC LR Kinnojyukugo_01_0544"
    INDEX 01 12:30:57
  TRACK 545 AUDIO
    TITLE "TOEIC LR Kinnojyukugo_01_0545"
    INDEX 01 12:31:37
  TRACK 546 AUDIO
    TITLE "TOEIC LR Kinnojyukugo_01_0546"
    INDEX 01 12:32:00
  TRACK 547 AUDIO
    TITLE "TOEIC LR Kinnojyukugo_01_0547"
    INDEX 01 12:34:28
  TRACK 548 AUDIO
    TITLE "TOEIC LR Kinnojyukugo_01_0548"
    INDEX 01 12:34:65
  TRACK 549 AUDIO
    TITLE "TOEIC LR Kinnojyukugo_01_0549"
    INDEX 01 12:36:64
  TRACK 550 AUDIO
    TITLE "TOEIC LR Kinnojyukugo_01_0550"
    INDEX 01 12:37:12
  TRACK 551 AUDIO
    TITLE "TOEIC LR Kinnojyukugo_01_0551"
    INDEX 01 12:39:09
  TRACK 552 AUDIO
    TITLE "TOEIC LR Kinnojyukugo_01_0552"
    INDEX 01 12:40:11
  TRACK 553 AUDIO
    TITLE "TOEIC LR Kinnojyukugo_01_0553"
    INDEX 01 12:41:57
  TRACK 554 AUDIO
    TITLE "TOEIC LR Kinnojyukugo_01_0554"
    INDEX 01 12:42:19
  TRACK 555 AUDIO
    TITLE "TOEIC LR Kinnojyukugo_01_0555"
    INDEX 01 12:44:26
  TRACK 556 AUDIO
    TITLE "TOEIC LR Kinnojyukugo_01_0556"
    INDEX 01 12:44:65
  TRACK 557 AUDIO
    TITLE "TOEIC LR Kinnojyukugo_01_0557"
    INDEX 01 12:47:27
  TRACK 558 AUDIO
    TITLE "TOEIC LR Kinnojyukugo_01_0558"
    INDEX 01 12:47:64
  TRACK 559 AUDIO
    TITLE "TOEIC LR Kinnojyukugo_01_0559"
    INDEX 01 12:49:70
  TRACK 560 AUDIO
    TITLE "TOEIC LR Kinnojyukugo_01_0560"
    INDEX 01 12:50:19
  TRACK 561 AUDIO
    TITLE "TOEIC LR Kinnojyukugo_01_0561"
    INDEX 01 12:52:26
  TRACK 562 AUDIO
    TITLE "TOEIC LR Kinnojyukugo_01_0562"
    INDEX 01 12:53:25
  TRACK 563 AUDIO
    TITLE "TOEIC LR Kinnojyukugo_01_0563"
    INDEX 01 12:54:58
  TRACK 564 AUDIO
    TITLE "TOEIC LR Kinnojyukugo_01_0564"
    INDEX 01 12:55:22
  TRACK 565 AUDIO
    TITLE "TOEIC LR Kinnojyukugo_01_0565"
    INDEX 01 12:58:03
  TRACK 566 AUDIO
    TITLE "TOEIC LR Kinnojyukugo_01_0566"
    INDEX 01 12:58:44
  TRACK 567 AUDIO
    TITLE "TOEIC LR Kinnojyukugo_01_0567"
    INDEX 01 13:02:10
  TRACK 568 AUDIO
    TITLE "TOEIC LR Kinnojyukugo_01_0568"
    INDEX 01 13:02:48
  TRACK 569 AUDIO
    TITLE "TOEIC LR Kinnojyukugo_01_0569"
    INDEX 01 13:05:42
  TRACK 570 AUDIO
    TITLE "TOEIC LR Kinnojyukugo_01_0570"
    INDEX 01 13:05:68
  TRACK 571 AUDIO
    TITLE "TOEIC LR Kinnojyukugo_01_0571"
    INDEX 01 13:08:62
  TRACK 572 AUDIO
    TITLE "TOEIC LR Kinnojyukugo_01_0572"
    INDEX 01 13:09:63
  TRACK 573 AUDIO
    TITLE "TOEIC LR Kinnojyukugo_01_0573"
    INDEX 01 13:10:71
  TRACK 574 AUDIO
    TITLE "TOEIC LR Kinnojyukugo_01_0574"
    INDEX 01 13:11:33
  TRACK 575 AUDIO
    TITLE "TOEIC LR Kinnojyukugo_01_0575"
    INDEX 01 13:14:59
  TRACK 576 AUDIO
    TITLE "TOEIC LR Kinnojyukugo_01_0576"
    INDEX 01 13:15:23
  TRACK 577 AUDIO
    TITLE "TOEIC LR Kinnojyukugo_01_0577"
    INDEX 01 13:17:28
  TRACK 578 AUDIO
    TITLE "TOEIC LR Kinnojyukugo_01_0578"
    INDEX 01 13:17:65
  TRACK 579 AUDIO
    TITLE "TOEIC LR Kinnojyukugo_01_0579"
    INDEX 01 13:19:56
  TRACK 580 AUDIO
    TITLE "TOEIC LR Kinnojyukugo_01_0580"
    INDEX 01 13:20:06
  TRACK 581 AUDIO
    TITLE "TOEIC LR Kinnojyukugo_01_0581"
    INDEX 01 13:21:74
  TRACK 582 AUDIO
    TITLE "TOEIC LR Kinnojyukugo_01_0582"
    INDEX 01 13:23:01
  TRACK 583 AUDIO
    TITLE "TOEIC LR Kinnojyukugo_01_0583"
    INDEX 01 13:24:22
  TRACK 584 AUDIO
    TITLE "TOEIC LR Kinnojyukugo_01_0584"
    INDEX 01 13:24:57
  TRACK 585 AUDIO
    TITLE "TOEIC LR Kinnojyukugo_01_0585"
    INDEX 01 13:25:62
  TRACK 586 AUDIO
    TITLE "TOEIC LR Kinnojyukugo_01_0586"
    INDEX 01 13:26:25
  TRACK 587 AUDIO
    TITLE "TOEIC LR Kinnojyukugo_01_0587"
    INDEX 01 13:30:03
  TRACK 588 AUDIO
    TITLE "TOEIC LR Kinnojyukugo_01_0588"
    INDEX 01 13:30:40
  TRACK 589 AUDIO
    TITLE "TOEIC LR Kinnojyukugo_01_0589"
    INDEX 01 13:34:38
  TRACK 590 AUDIO
    TITLE "TOEIC LR Kinnojyukugo_01_0590"
    INDEX 01 13:34:63
  TRACK 591 AUDIO
    TITLE "TOEIC LR Kinnojyukugo_01_0591"
    INDEX 01 13:38:59
  TRACK 592 AUDIO
    TITLE "TOEIC LR Kinnojyukugo_01_0592"
    INDEX 01 13:39:68
  TRACK 593 AUDIO
    TITLE "TOEIC LR Kinnojyukugo_01_0593"
    INDEX 01 13:41:24
  TRACK 594 AUDIO
    TITLE "TOEIC LR Kinnojyukugo_01_0594"
    INDEX 01 13:41:61
  TRACK 595 AUDIO
    TITLE "TOEIC LR Kinnojyukugo_01_0595"
    INDEX 01 13:44:21
  TRACK 596 AUDIO
    TITLE "TOEIC LR Kinnojyukugo_01_0596"
    INDEX 01 13:44:58
  TRACK 597 AUDIO
    TITLE "TOEIC LR Kinnojyukugo_01_0597"
    INDEX 01 13:47:70
  TRACK 598 AUDIO
    TITLE "TOEIC LR Kinnojyukugo_01_0598"
    INDEX 01 13:48:32
  TRACK 599 AUDIO
    TITLE "TOEIC LR Kinnojyukugo_01_0599"
    INDEX 01 13:51:38
  TRACK 600 AUDIO
    TITLE "TOEIC LR Kinnojyukugo_01_0600"
    INDEX 01 13:51:62
  TRACK 601 AUDIO
    TITLE "TOEIC LR Kinnojyukugo_01_0601"
    INDEX 01 13:54:68
  TRACK 602 AUDIO
    TITLE "TOEIC LR Kinnojyukugo_01_0602"
    INDEX 01 13:55:67
  TRACK 603 AUDIO
    TITLE "TOEIC LR Kinnojyukugo_01_0603"
    INDEX 01 13:57:11
  TRACK 604 AUDIO
    TITLE "TOEIC LR Kinnojyukugo_01_0604"
    INDEX 01 13:57:55
  TRACK 605 AUDIO
    TITLE "TOEIC LR Kinnojyukugo_01_0605"
    INDEX 01 14:00:02
  TRACK 606 AUDIO
    TITLE "TOEIC LR Kinnojyukugo_01_0606"
    INDEX 01 14:00:43
  TRACK 607 AUDIO
    TITLE "TOEIC LR Kinnojyukugo_01_0607"
    INDEX 01 14:02:69
  TRACK 608 AUDIO
    TITLE "TOEIC LR Kinnojyukugo_01_0608"
    INDEX 01 14:03:32
  TRACK 609 AUDIO
    TITLE "TOEIC LR Kinnojyukugo_01_0609"
    INDEX 01 14:05:64
  TRACK 610 AUDIO
    TITLE "TOEIC LR Kinnojyukugo_01_0610"
    INDEX 01 14:06:14
  TRACK 611 AUDIO
    TITLE "TOEIC LR Kinnojyukugo_01_0611"
    INDEX 01 14:08:48
  TRACK 612 AUDIO
    TITLE "TOEIC LR Kinnojyukugo_01_0612"
    INDEX 01 14:09:48
  TRACK 613 AUDIO
    TITLE "TOEIC LR Kinnojyukugo_01_0613"
    INDEX 01 14:11:08
  TRACK 614 AUDIO
    TITLE "TOEIC LR Kinnojyukugo_01_0614"
    INDEX 01 14:11:47
  TRACK 615 AUDIO
    TITLE "TOEIC LR Kinnojyukugo_01_0615"
    INDEX 01 14:12:68
  TRACK 616 AUDIO
    TITLE "TOEIC LR Kinnojyukugo_01_0616"
    INDEX 01 14:13:30
  TRACK 617 AUDIO
    TITLE "TOEIC LR Kinnojyukugo_01_0617"
    INDEX 01 14:15:09
  TRACK 618 AUDIO
    TITLE "TOEIC LR Kinnojyukugo_01_0618"
    INDEX 01 14:15:49
  TRACK 619 AUDIO
    TITLE "TOEIC LR Kinnojyukugo_01_0619"
    INDEX 01 14:17:69
  TRACK 620 AUDIO
    TITLE "TOEIC LR Kinnojyukugo_01_0620"
    INDEX 01 14:18:23
  TRACK 621 AUDIO
    TITLE "TOEIC LR Kinnojyukugo_01_0621"
    INDEX 01 14:20:42
  TRACK 622 AUDIO
    TITLE "TOEIC LR Kinnojyukugo_01_0622"
    INDEX 01 14:21:43
  TRACK 623 AUDIO
    TITLE "TOEIC LR Kinnojyukugo_01_0623"
    INDEX 01 14:23:01
  TRACK 624 AUDIO
    TITLE "TOEIC LR Kinnojyukugo_01_0624"
    INDEX 01 14:23:36
  TRACK 625 AUDIO
    TITLE "TOEIC LR Kinnojyukugo_01_0625"
    INDEX 01 14:24:67
  TRACK 626 AUDIO
    TITLE "TOEIC LR Kinnojyukugo_01_0626"
    INDEX 01 14:25:31
  TRACK 627 AUDIO
    TITLE "TOEIC LR Kinnojyukugo_01_0627"
    INDEX 01 14:27:07
  TRACK 628 AUDIO
    TITLE "TOEIC LR Kinnojyukugo_01_0628"
    INDEX 01 14:27:46
  TRACK 629 AUDIO
    TITLE "TOEIC LR Kinnojyukugo_01_0629"
    INDEX 01 14:29:29
  TRACK 630 AUDIO
    TITLE "TOEIC LR Kinnojyukugo_01_0630"
    INDEX 01 14:29:57
  TRACK 631 AUDIO
    TITLE "TOEIC LR Kinnojyukugo_01_0631"
    INDEX 01 14:31:40
  TRACK 632 AUDIO
    TITLE "TOEIC LR Kinnojyukugo_01_0632"
    INDEX 01 14:32:41
  TRACK 633 AUDIO
    TITLE "TOEIC LR Kinnojyukugo_01_0633"
    INDEX 01 14:33:58
  TRACK 634 AUDIO
    TITLE "TOEIC LR Kinnojyukugo_01_0634"
    INDEX 01 14:34:22
  TRACK 635 AUDIO
    TITLE "TOEIC LR Kinnojyukugo_01_0635"
    INDEX 01 14:35:34
  TRACK 636 AUDIO
    TITLE "TOEIC LR Kinnojyukugo_01_0636"
    INDEX 01 14:35:71
  TRACK 637 AUDIO
    TITLE "TOEIC LR Kinnojyukugo_01_0637"
    INDEX 01 14:37:62
  TRACK 638 AUDIO
    TITLE "TOEIC LR Kinnojyukugo_01_0638"
    INDEX 01 14:38:26
  TRACK 639 AUDIO
    TITLE "TOEIC LR Kinnojyukugo_01_0639"
    INDEX 01 14:40:23
  TRACK 640 AUDIO
    TITLE "TOEIC LR Kinnojyukugo_01_0640"
    INDEX 01 14:40:52
  TRACK 641 AUDIO
    TITLE "TOEIC LR Kinnojyukugo_01_0641"
    INDEX 01 14:42:51
  TRACK 642 AUDIO
    TITLE "TOEIC LR Kinnojyukugo_01_0642"
    INDEX 01 14:43:55
  TRACK 643 AUDIO
    TITLE "TOEIC LR Kinnojyukugo_01_0643"
    INDEX 01 14:45:20
  TRACK 644 AUDIO
    TITLE "TOEIC LR Kinnojyukugo_01_0644"
    INDEX 01 14:45:61
  TRACK 645 AUDIO
    TITLE "TOEIC LR Kinnojyukugo_01_0645"
    INDEX 01 14:47:52
  TRACK 646 AUDIO
    TITLE "TOEIC LR Kinnojyukugo_01_0646"
    INDEX 01 14:48:15
  TRACK 647 AUDIO
    TITLE "TOEIC LR Kinnojyukugo_01_0647"
    INDEX 01 14:50:74
  TRACK 648 AUDIO
    TITLE "TOEIC LR Kinnojyukugo_01_0648"
    INDEX 01 14:51:39
  TRACK 649 AUDIO
    TITLE "TOEIC LR Kinnojyukugo_01_0649"
    INDEX 01 14:54:53
  TRACK 650 AUDIO
    TITLE "TOEIC LR Kinnojyukugo_01_0650"
    INDEX 01 14:55:05
  TRACK 651 AUDIO
    TITLE "TOEIC LR Kinnojyukugo_01_0651"
    INDEX 01 14:58:17
  TRACK 652 AUDIO
    TITLE "TOEIC LR Kinnojyukugo_01_0652"
    INDEX 01 14:59:18
  TRACK 653 AUDIO
    TITLE "TOEIC LR Kinnojyukugo_01_0653"
    INDEX 01 15:00:28
  TRACK 654 AUDIO
    TITLE "TOEIC LR Kinnojyukugo_01_0654"
    INDEX 01 15:00:65
  TRACK 655 AUDIO
    TITLE "TOEIC LR Kinnojyukugo_01_0655"
    INDEX 01 15:04:16
  TRACK 656 AUDIO
    TITLE "TOEIC LR Kinnojyukugo_01_0656"
    INDEX 01 15:04:69
  TRACK 657 AUDIO
    TITLE "TOEIC LR Kinnojyukugo_01_0657"
    INDEX 01 15:07:67
  TRACK 658 AUDIO
    TITLE "TOEIC LR Kinnojyukugo_01_0658"
    INDEX 01 15:08:41
  TRACK 659 AUDIO
    TITLE "TOEIC LR Kinnojyukugo_01_0659"
    INDEX 01 15:11:04
  TRACK 660 AUDIO
    TITLE "TOEIC LR Kinnojyukugo_01_0660"
    INDEX 01 15:11:37
  TRACK 661 AUDIO
    TITLE "TOEIC LR Kinnojyukugo_01_0661"
    INDEX 01 15:14:00
  TRACK 662 AUDIO
    TITLE "TOEIC LR Kinnojyukugo_01_0662"
    INDEX 01 15:15:00
  TRACK 663 AUDIO
    TITLE "TOEIC LR Kinnojyukugo_01_0663"
    INDEX 01 15:16:15
  TRACK 664 AUDIO
    TITLE "TOEIC LR Kinnojyukugo_01_0664"
    INDEX 01 15:16:54
  TRACK 665 AUDIO
    TITLE "TOEIC LR Kinnojyukugo_01_0665"
    INDEX 01 15:19:49
  TRACK 666 AUDIO
    TITLE "TOEIC LR Kinnojyukugo_01_0666"
    INDEX 01 15:20:11
  TRACK 667 AUDIO
    TITLE "TOEIC LR Kinnojyukugo_01_0667"
    INDEX 01 15:22:16
  TRACK 668 AUDIO
    TITLE "TOEIC LR Kinnojyukugo_01_0668"
    INDEX 01 15:22:53
  TRACK 669 AUDIO
    TITLE "TOEIC LR Kinnojyukugo_01_0669"
    INDEX 01 15:24:63
  TRACK 670 AUDIO
    TITLE "TOEIC LR Kinnojyukugo_01_0670"
    INDEX 01 15:25:14
  TRACK 671 AUDIO
    TITLE "TOEIC LR Kinnojyukugo_01_0671"
    INDEX 01 15:27:23
  TRACK 672 AUDIO
    TITLE "TOEIC LR Kinnojyukugo_01_0672"
    INDEX 01 15:28:22
  TRACK 673 AUDIO
    TITLE "TOEIC LR Kinnojyukugo_01_0673"
    INDEX 01 15:29:53
  TRACK 674 AUDIO
    TITLE "TOEIC LR Kinnojyukugo_01_0674"
    INDEX 01 15:30:15
  TRACK 675 AUDIO
    TITLE "TOEIC LR Kinnojyukugo_01_0675"
    INDEX 01 15:33:15
  TRACK 676 AUDIO
    TITLE "TOEIC LR Kinnojyukugo_01_0676"
    INDEX 01 15:33:53
  TRACK 677 AUDIO
    TITLE "TOEIC LR Kinnojyukugo_01_0677"
    INDEX 01 15:36:49
  TRACK 678 AUDIO
    TITLE "TOEIC LR Kinnojyukugo_01_0678"
    INDEX 01 15:37:13
  TRACK 679 AUDIO
    TITLE "TOEIC LR Kinnojyukugo_01_0679"
    INDEX 01 15:39:26
  TRACK 680 AUDIO
    TITLE "TOEIC LR Kinnojyukugo_01_0680"
    INDEX 01 15:39:49
  TRACK 681 AUDIO
    TITLE "TOEIC LR Kinnojyukugo_01_0681"
    INDEX 01 15:41:64
  TRACK 682 AUDIO
    TITLE "TOEIC LR Kinnojyukugo_01_0682"
    INDEX 01 15:42:63
  TRACK 683 AUDIO
    TITLE "TOEIC LR Kinnojyukugo_01_0683"
    INDEX 01 15:44:13
  TRACK 684 AUDIO
    TITLE "TOEIC LR Kinnojyukugo_01_0684"
    INDEX 01 15:44:52
  TRACK 685 AUDIO
    TITLE "TOEIC LR Kinnojyukugo_01_0685"
    INDEX 01 15:45:64
  TRACK 686 AUDIO
    TITLE "TOEIC LR Kinnojyukugo_01_0686"
    INDEX 01 15:46:28
  TRACK 687 AUDIO
    TITLE "TOEIC LR Kinnojyukugo_01_0687"
    INDEX 01 15:49:59
  TRACK 688 AUDIO
    TITLE "TOEIC LR Kinnojyukugo_01_0688"
    INDEX 01 15:50:22
  TRACK 689 AUDIO
    TITLE "TOEIC LR Kinnojyukugo_01_0689"
    INDEX 01 15:53:12
  TRACK 690 AUDIO
    TITLE "TOEIC LR Kinnojyukugo_01_0690"
    INDEX 01 15:53:38
  TRACK 691 AUDIO
    TITLE "TOEIC LR Kinnojyukugo_01_0691"
    INDEX 01 15:56:26
  TRACK 692 AUDIO
    TITLE "TOEIC LR Kinnojyukugo_01_0692"
    INDEX 01 15:57:28
  TRACK 693 AUDIO
    TITLE "TOEIC LR Kinnojyukugo_01_0693"
    INDEX 01 15:58:55
  TRACK 694 AUDIO
    TITLE "TOEIC LR Kinnojyukugo_01_0694"
    INDEX 01 15:59:17
  TRACK 695 AUDIO
    TITLE "TOEIC LR Kinnojyukugo_01_0695"
    INDEX 01 16:00:67
  TRACK 696 AUDIO
    TITLE "TOEIC LR Kinnojyukugo_01_0696"
    INDEX 01 16:01:31
  TRACK 697 AUDIO
    TITLE "TOEIC LR Kinnojyukugo_01_0697"
    INDEX 01 16:04:43
  TRACK 698 AUDIO
    TITLE "TOEIC LR Kinnojyukugo_01_0698"
    INDEX 01 16:05:08
  TRACK 699 AUDIO
    TITLE "TOEIC LR Kinnojyukugo_01_0699"
    INDEX 01 16:07:28
  TRACK 700 AUDIO
    TITLE "TOEIC LR Kinnojyukugo_01_0700"
    INDEX 01 16:07:53
  TRACK 701 AUDIO
    TITLE "TOEIC LR Kinnojyukugo_01_0701"
    INDEX 01 16:09:74
  TRACK 702 AUDIO
    TITLE "TOEIC LR Kinnojyukugo_01_0702"
    INDEX 01 16:10:73
  TRACK 703 AUDIO
    TITLE "TOEIC LR Kinnojyukugo_01_0703"
    INDEX 01 16:12:08
  TRACK 704 AUDIO
    TITLE "TOEIC LR Kinnojyukugo_01_0704"
    INDEX 01 16:12:47
  TRACK 705 AUDIO
    TITLE "TOEIC LR Kinnojyukugo_01_0705"
    INDEX 01 16:14:40
  TRACK 706 AUDIO
    TITLE "TOEIC LR Kinnojyukugo_01_0706"
    INDEX 01 16:15:10
  TRACK 707 AUDIO
    TITLE "TOEIC LR Kinnojyukugo_01_0707"
    INDEX 01 16:17:34
  TRACK 708 AUDIO
    TITLE "TOEIC LR Kinnojyukugo_01_0708"
    INDEX 01 16:17:73
  TRACK 709 AUDIO
    TITLE "TOEIC LR Kinnojyukugo_01_0709"
    INDEX 01 16:19:70
  TRACK 710 AUDIO
    TITLE "TOEIC LR Kinnojyukugo_01_0710"
    INDEX 01 16:20:21
  TRACK 711 AUDIO
    TITLE "TOEIC LR Kinnojyukugo_01_0711"
    INDEX 01 16:22:18
  TRACK 712 AUDIO
    TITLE "TOEIC LR Kinnojyukugo_01_0712"
    INDEX 01 16:23:19
  TRACK 713 AUDIO
    TITLE "TOEIC LR Kinnojyukugo_01_0713"
    INDEX 01 16:24:34
  TRACK 714 AUDIO
    TITLE "TOEIC LR Kinnojyukugo_01_0714"
    INDEX 01 16:24:70
  TRACK 715 AUDIO
    TITLE "TOEIC LR Kinnojyukugo_01_0715"
    INDEX 01 16:26:45
  TRACK 716 AUDIO
    TITLE "TOEIC LR Kinnojyukugo_01_0716"
    INDEX 01 16:27:11
  TRACK 717 AUDIO
    TITLE "TOEIC LR Kinnojyukugo_01_0717"
    INDEX 01 16:29:65
  TRACK 718 AUDIO
    TITLE "TOEIC LR Kinnojyukugo_01_0718"
    INDEX 01 16:30:27
  TRACK 719 AUDIO
    TITLE "TOEIC LR Kinnojyukugo_01_0719"
    INDEX 01 16:32:38
  TRACK 720 AUDIO
    TITLE "TOEIC LR Kinnojyukugo_01_0720"
    INDEX 01 16:32:63
  TRACK 721 AUDIO
    TITLE "TOEIC LR Kinnojyukugo_01_0721"
    INDEX 01 16:34:72
  TRACK 722 AUDIO
    TITLE "TOEIC LR Kinnojyukugo_01_0722"
    INDEX 01 16:35:73
  TRACK 723 AUDIO
    TITLE "TOEIC LR Kinnojyukugo_01_0723"
    INDEX 01 16:37:19
  TRACK 724 AUDIO
    TITLE "TOEIC LR Kinnojyukugo_01_0724"
    INDEX 01 16:37:57
  TRACK 725 AUDIO
    TITLE "TOEIC LR Kinnojyukugo_01_0725"
    INDEX 01 16:40:45
  TRACK 726 AUDIO
    TITLE "TOEIC LR Kinnojyukugo_01_0726"
    INDEX 01 16:41:09
  TRACK 727 AUDIO
    TITLE "TOEIC LR Kinnojyukugo_01_0727"
    INDEX 01 16:43:43
  TRACK 728 AUDIO
    TITLE "TOEIC LR Kinnojyukugo_01_0728"
    INDEX 01 16:44:08
  TRACK 729 AUDIO
    TITLE "TOEIC LR Kinnojyukugo_01_0729"
    INDEX 01 16:46:24
  TRACK 730 AUDIO
    TITLE "TOEIC LR Kinnojyukugo_01_0730"
    INDEX 01 16:46:50
  TRACK 731 AUDIO
    TITLE "TOEIC LR Kinnojyukugo_01_0731"
    INDEX 01 16:48:68
  TRACK 732 AUDIO
    TITLE "TOEIC LR Kinnojyukugo_01_0732"
    INDEX 01 16:49:68
  TRACK 733 AUDIO
    TITLE "TOEIC LR Kinnojyukugo_01_0733"
    INDEX 01 16:51:06
  TRACK 734 AUDIO
    TITLE "TOEIC LR Kinnojyukugo_01_0734"
    INDEX 01 16:51:57
  TRACK 735 AUDIO
    TITLE "TOEIC LR Kinnojyukugo_01_0735"
    INDEX 01 16:53:16
  TRACK 736 AUDIO
    TITLE "TOEIC LR Kinnojyukugo_01_0736"
    INDEX 01 16:53:57
  TRACK 737 AUDIO
    TITLE "TOEIC LR Kinnojyukugo_01_0737"
    INDEX 01 16:56:50
  TRACK 738 AUDIO
    TITLE "TOEIC LR Kinnojyukugo_01_0738"
    INDEX 01 16:57:14
  TRACK 739 AUDIO
    TITLE "TOEIC LR Kinnojyukugo_01_0739"
    INDEX 01 16:59:60
  TRACK 740 AUDIO
    TITLE "TOEIC LR Kinnojyukugo_01_0740"
    INDEX 01 17:00:11
  TRACK 741 AUDIO
    TITLE "TOEIC LR Kinnojyukugo_01_0741"
    INDEX 01 17:02:56
  TRACK 742 AUDIO
    TITLE "TOEIC LR Kinnojyukugo_01_0742"
    INDEX 01 17:03:56
  TRACK 743 AUDIO
    TITLE "TOEIC LR Kinnojyukugo_01_0743"
    INDEX 01 17:04:61
  TRACK 744 AUDIO
    TITLE "TOEIC LR Kinnojyukugo_01_0744"
    INDEX 01 17:05:21
  TRACK 745 AUDIO
    TITLE "TOEIC LR Kinnojyukugo_01_0745"
    INDEX 01 17:08:49
  TRACK 746 AUDIO
    TITLE "TOEIC LR Kinnojyukugo_01_0746"
    INDEX 01 17:09:11
  TRACK 747 AUDIO
    TITLE "TOEIC LR Kinnojyukugo_01_0747"
    INDEX 01 17:11:01
  TRACK 748 AUDIO
    TITLE "TOEIC LR Kinnojyukugo_01_0748"
    INDEX 01 17:11:38
  TRACK 749 AUDIO
    TITLE "TOEIC LR Kinnojyukugo_01_0749"
    INDEX 01 17:13:48
  TRACK 750 AUDIO
    TITLE "TOEIC LR Kinnojyukugo_01_0750"
    INDEX 01 17:13:74
  TRACK 751 AUDIO
    TITLE "TOEIC LR Kinnojyukugo_01_0751"
    INDEX 01 17:16:08
  TRACK 752 AUDIO
    TITLE "TOEIC LR Kinnojyukugo_01_0752"
    INDEX 01 17:17:07
  TRACK 753 AUDIO
    TITLE "TOEIC LR Kinnojyukugo_01_0753"
    INDEX 01 17:18:55
  TRACK 754 AUDIO
    TITLE "TOEIC LR Kinnojyukugo_01_0754"
    INDEX 01 17:19:18
  TRACK 755 AUDIO
    TITLE "TOEIC LR Kinnojyukugo_01_0755"
    INDEX 01 17:20:25
  TRACK 756 AUDIO
    TITLE "TOEIC LR Kinnojyukugo_01_0756"
    INDEX 01 17:20:62
  TRACK 757 AUDIO
    TITLE "TOEIC LR Kinnojyukugo_01_0757"
    INDEX 01 17:22:49
  TRACK 758 AUDIO
    TITLE "TOEIC LR Kinnojyukugo_01_0758"
    INDEX 01 17:23:12
  TRACK 759 AUDIO
    TITLE "TOEIC LR Kinnojyukugo_01_0759"
    INDEX 01 17:25:59
  TRACK 760 AUDIO
    TITLE "TOEIC LR Kinnojyukugo_01_0760"
    INDEX 01 17:26:06
  TRACK 761 AUDIO
    TITLE "TOEIC LR Kinnojyukugo_01_0761"
    INDEX 01 17:28:50
  TRACK 762 AUDIO
    TITLE "TOEIC LR Kinnojyukugo_01_0762"
    INDEX 01 17:29:47
  TRACK 763 AUDIO
    TITLE "TOEIC LR Kinnojyukugo_01_0763"
    INDEX 01 17:30:70
  TRACK 764 AUDIO
    TITLE "TOEIC LR Kinnojyukugo_01_0764"
    INDEX 01 17:31:39
  TRACK 765 AUDIO
    TITLE "TOEIC LR Kinnojyukugo_01_0765"
    INDEX 01 17:32:61
  TRACK 766 AUDIO
    TITLE "TOEIC LR Kinnojyukugo_01_0766"
    INDEX 01 17:33:26
  TRACK 767 AUDIO
    TITLE "TOEIC LR Kinnojyukugo_01_0767"
    INDEX 01 17:35:72
  TRACK 768 AUDIO
    TITLE "TOEIC LR Kinnojyukugo_01_0768"
    INDEX 01 17:36:38
  TRACK 769 AUDIO
    TITLE "TOEIC LR Kinnojyukugo_01_0769"
    INDEX 01 17:38:54
  TRACK 770 AUDIO
    TITLE "TOEIC LR Kinnojyukugo_01_0770"
    INDEX 01 17:39:07
  TRACK 771 AUDIO
    TITLE "TOEIC LR Kinnojyukugo_01_0771"
    INDEX 01 17:41:21
  TRACK 772 AUDIO
    TITLE "TOEIC LR Kinnojyukugo_01_0772"
    INDEX 01 17:42:23
  TRACK 773 AUDIO
    TITLE "TOEIC LR Kinnojyukugo_01_0773"
    INDEX 01 17:43:48
  TRACK 774 AUDIO
    TITLE "TOEIC LR Kinnojyukugo_01_0774"
    INDEX 01 17:44:10
  TRACK 775 AUDIO
    TITLE "TOEIC LR Kinnojyukugo_01_0775"
    INDEX 01 17:45:25
  TRACK 776 AUDIO
    TITLE "TOEIC LR Kinnojyukugo_01_0776"
    INDEX 01 17:45:62
  TRACK 777 AUDIO
    TITLE "TOEIC LR Kinnojyukugo_01_0777"
    INDEX 01 17:48:60
  TRACK 778 AUDIO
    TITLE "TOEIC LR Kinnojyukugo_01_0778"
    INDEX 01 17:49:23
  TRACK 779 AUDIO
    TITLE "TOEIC LR Kinnojyukugo_01_0779"
    INDEX 01 17:52:00
  TRACK 780 AUDIO
    TITLE "TOEIC LR Kinnojyukugo_01_0780"
    INDEX 01 17:52:39
  TRACK 781 AUDIO
    TITLE "TOEIC LR Kinnojyukugo_01_0781"
    INDEX 01 17:55:25
  TRACK 782 AUDIO
    TITLE "TOEIC LR Kinnojyukugo_01_0782"
    INDEX 01 17:56:29
  TRACK 783 AUDIO
    TITLE "TOEIC LR Kinnojyukugo_01_0783"
    INDEX 01 17:57:63
  TRACK 784 AUDIO
    TITLE "TOEIC LR Kinnojyukugo_01_0784"
    INDEX 01 17:58:28
  TRACK 785 AUDIO
    TITLE "TOEIC LR Kinnojyukugo_01_0785"
    INDEX 01 18:01:40
  TRACK 786 AUDIO
    TITLE "TOEIC LR Kinnojyukugo_01_0786"
    INDEX 01 18:02:02
  TRACK 787 AUDIO
    TITLE "TOEIC LR Kinnojyukugo_01_0787"
    INDEX 01 18:05:04
  TRACK 788 AUDIO
    TITLE "TOEIC LR Kinnojyukugo_01_0788"
    INDEX 01 18:05:43
  TRACK 789 AUDIO
    TITLE "TOEIC LR Kinnojyukugo_01_0789"
    INDEX 01 18:07:68
  TRACK 790 AUDIO
    TITLE "TOEIC LR Kinnojyukugo_01_0790"
    INDEX 01 18:08:18
  TRACK 791 AUDIO
    TITLE "TOEIC LR Kinnojyukugo_01_0791"
    INDEX 01 18:10:42
  TRACK 792 AUDIO
    TITLE "TOEIC LR Kinnojyukugo_01_0792"
    INDEX 01 18:11:42
  TRACK 793 AUDIO
    TITLE "TOEIC LR Kinnojyukugo_01_0793"
    INDEX 01 18:13:00
  TRACK 794 AUDIO
    TITLE "TOEIC LR Kinnojyukugo_01_0794"
    INDEX 01 18:13:37
  TRACK 795 AUDIO
    TITLE "TOEIC LR Kinnojyukugo_01_0795"
    INDEX 01 18:14:42
  TRACK 796 AUDIO
    TITLE "TOEIC LR Kinnojyukugo_01_0796"
    INDEX 01 18:15:08
  TRACK 797 AUDIO
    TITLE "TOEIC LR Kinnojyukugo_01_0797"
    INDEX 01 18:16:65
  TRACK 798 AUDIO
    TITLE "TOEIC LR Kinnojyukugo_01_0798"
    INDEX 01 18:17:27
  TRACK 799 AUDIO
    TITLE "TOEIC LR Kinnojyukugo_01_0799"
    INDEX 01 18:19:47
  TRACK 800 AUDIO
    TITLE "TOEIC LR Kinnojyukugo_01_0800"
    INDEX 01 18:20:00
  TRACK 801 AUDIO
    TITLE "TOEIC LR Kinnojyukugo_01_0801"
    INDEX 01 18:22:16
  TRACK 802 AUDIO
    TITLE "TOEIC LR Kinnojyukugo_01_0802"
    INDEX 01 18:23:18
  TRACK 803 AUDIO
    TITLE "TOEIC LR Kinnojyukugo_01_0803"
    INDEX 01 18:24:39
  TRACK 804 AUDIO
    TITLE "TOEIC LR Kinnojyukugo_01_0804"
    INDEX 01 18:25:03
  TRACK 805 AUDIO
    TITLE "TOEIC LR Kinnojyukugo_01_0805"
    INDEX 01 18:27:59
  TRACK 806 AUDIO
    TITLE "TOEIC LR Kinnojyukugo_01_0806"
    INDEX 01 18:28:21
  TRACK 807 AUDIO
    TITLE "TOEIC LR Kinnojyukugo_01_0807"
    INDEX 01 18:30:55
  TRACK 808 AUDIO
    TITLE "TOEIC LR Kinnojyukugo_01_0808"
    INDEX 01 18:31:19
  TRACK 809 AUDIO
    TITLE "TOEIC LR Kinnojyukugo_01_0809"
    INDEX 01 18:33:32
  TRACK 810 AUDIO
    TITLE "TOEIC LR Kinnojyukugo_01_0810"
    INDEX 01 18:33:57
  TRACK 811 AUDIO
    TITLE "TOEIC LR Kinnojyukugo_01_0811"
    INDEX 01 18:35:70
  TRACK 812 AUDIO
    TITLE "TOEIC LR Kinnojyukugo_01_0812"
    INDEX 01 18:36:69
  TRACK 813 AUDIO
    TITLE "TOEIC LR Kinnojyukugo_01_0813"
    INDEX 01 18:38:64
  TRACK 814 AUDIO
    TITLE "TOEIC LR Kinnojyukugo_01_0814"
    INDEX 01 18:39:27
  TRACK 815 AUDIO
    TITLE "TOEIC LR Kinnojyukugo_01_0815"
    INDEX 01 18:42:05
  TRACK 816 AUDIO
    TITLE "TOEIC LR Kinnojyukugo_01_0816"
    INDEX 01 18:42:52
  TRACK 817 AUDIO
    TITLE "TOEIC LR Kinnojyukugo_01_0817"
    INDEX 01 18:45:31
  TRACK 818 AUDIO
    TITLE "TOEIC LR Kinnojyukugo_01_0818"
    INDEX 01 18:45:70
  TRACK 819 AUDIO
    TITLE "TOEIC LR Kinnojyukugo_01_0819"
    INDEX 01 18:48:31
  TRACK 820 AUDIO
    TITLE "TOEIC LR Kinnojyukugo_01_0820"
    INDEX 01 18:48:55
  TRACK 821 AUDIO
    TITLE "TOEIC LR Kinnojyukugo_01_0821"
    INDEX 01 18:51:14
  TRACK 822 AUDIO
    TITLE "TOEIC LR Kinnojyukugo_01_0822"
    INDEX 01 18:52:15
  TRACK 823 AUDIO
    TITLE "TOEIC LR Kinnojyukugo_01_0823"
    INDEX 01 18:53:31
  TRACK 824 AUDIO
    TITLE "TOEIC LR Kinnojyukugo_01_0824"
    INDEX 01 18:53:68
  TRACK 825 AUDIO
    TITLE "TOEIC LR Kinnojyukugo_01_0825"
    INDEX 01 18:56:15
  TRACK 826 AUDIO
    TITLE "TOEIC LR Kinnojyukugo_01_0826"
    INDEX 01 18:56:54
  TRACK 827 AUDIO
    TITLE "TOEIC LR Kinnojyukugo_01_0827"
    INDEX 01 18:59:31
  TRACK 828 AUDIO
    TITLE "TOEIC LR Kinnojyukugo_01_0828"
    INDEX 01 18:59:66
  TRACK 829 AUDIO
    TITLE "TOEIC LR Kinnojyukugo_01_0829"
    INDEX 01 19:02:26
  TRACK 830 AUDIO
    TITLE "TOEIC LR Kinnojyukugo_01_0830"
    INDEX 01 19:02:49
  TRACK 831 AUDIO
    TITLE "TOEIC LR Kinnojyukugo_01_0831"
    INDEX 01 19:05:08
  TRACK 832 AUDIO
    TITLE "TOEIC LR Kinnojyukugo_01_0832"
    INDEX 01 19:06:08
  TRACK 833 AUDIO
    TITLE "TOEIC LR Kinnojyukugo_01_0833"
    INDEX 01 19:07:27
  TRACK 834 AUDIO
    TITLE "TOEIC LR Kinnojyukugo_01_0834"
    INDEX 01 19:07:66
  TRACK 835 AUDIO
    TITLE "TOEIC LR Kinnojyukugo_01_0835"
    INDEX 01 19:09:00
  TRACK 836 AUDIO
    TITLE "TOEIC LR Kinnojyukugo_01_0836"
    INDEX 01 19:09:41
  TRACK 837 AUDIO
    TITLE "TOEIC LR Kinnojyukugo_01_0837"
    INDEX 01 19:11:09
  TRACK 838 AUDIO
    TITLE "TOEIC LR Kinnojyukugo_01_0838"
    INDEX 01 19:11:48
  TRACK 839 AUDIO
    TITLE "TOEIC LR Kinnojyukugo_01_0839"
    INDEX 01 19:13:43
  TRACK 840 AUDIO
    TITLE "TOEIC LR Kinnojyukugo_01_0840"
    INDEX 01 19:13:69
  TRACK 841 AUDIO
    TITLE "TOEIC LR Kinnojyukugo_01_0841"
    INDEX 01 19:15:62
  TRACK 842 AUDIO
    TITLE "TOEIC LR Kinnojyukugo_01_0842"
    INDEX 01 19:16:63
  TRACK 843 AUDIO
    TITLE "TOEIC LR Kinnojyukugo_01_0843"
    INDEX 01 19:17:68
  TRACK 844 AUDIO
    TITLE "TOEIC LR Kinnojyukugo_01_0844"
    INDEX 01 19:18:32
  TRACK 845 AUDIO
    TITLE "TOEIC LR Kinnojyukugo_01_0845"
    INDEX 01 19:20:61
  TRACK 846 AUDIO
    TITLE "TOEIC LR Kinnojyukugo_01_0846"
    INDEX 01 19:21:25
  TRACK 847 AUDIO
    TITLE "TOEIC LR Kinnojyukugo_01_0847"
    INDEX 01 19:24:02
  TRACK 848 AUDIO
    TITLE "TOEIC LR Kinnojyukugo_01_0848"
    INDEX 01 19:24:39
  TRACK 849 AUDIO
    TITLE "TOEIC LR Kinnojyukugo_01_0849"
    INDEX 01 19:27:06
  TRACK 850 AUDIO
    TITLE "TOEIC LR Kinnojyukugo_01_0850"
    INDEX 01 19:27:29
  TRACK 851 AUDIO
    TITLE "TOEIC LR Kinnojyukugo_01_0851"
    INDEX 01 19:29:70
  TRACK 852 AUDIO
    TITLE "TOEIC LR Kinnojyukugo_01_0852"
    INDEX 01 19:30:69
  TRACK 853 AUDIO
    TITLE "TOEIC LR Kinnojyukugo_01_0853"
    INDEX 01 19:32:38
  TRACK 854 AUDIO
    TITLE "TOEIC LR Kinnojyukugo_01_0854"
    INDEX 01 19:33:01
  TRACK 855 AUDIO
    TITLE "TOEIC LR Kinnojyukugo_01_0855"
    INDEX 01 19:34:35
  TRACK 856 AUDIO
    TITLE "TOEIC LR Kinnojyukugo_01_0856"
    INDEX 01 19:35:00
  TRACK 857 AUDIO
    TITLE "TOEIC LR Kinnojyukugo_01_0857"
    INDEX 01 19:37:65
  TRACK 858 AUDIO
    TITLE "TOEIC LR Kinnojyukugo_01_0858"
    INDEX 01 19:38:27
  TRACK 859 AUDIO
    TITLE "TOEIC LR Kinnojyukugo_01_0859"
    INDEX 01 19:40:69
  TRACK 860 AUDIO
    TITLE "TOEIC LR Kinnojyukugo_01_0860"
    INDEX 01 19:41:20
  TRACK 861 AUDIO
    TITLE "TOEIC LR Kinnojyukugo_01_0861"
    INDEX 01 19:43:62
  TRACK 862 AUDIO
    TITLE "TOEIC LR Kinnojyukugo_01_0862"
    INDEX 01 19:44:63
  TRACK 863 AUDIO
    TITLE "TOEIC LR Kinnojyukugo_01_0863"
    INDEX 01 19:45:74
  TRACK 864 AUDIO
    TITLE "TOEIC LR Kinnojyukugo_01_0864"
    INDEX 01 19:46:39
  TRACK 865 AUDIO
    TITLE "TOEIC LR Kinnojyukugo_01_0865"
    INDEX 01 19:47:69
  TRACK 866 AUDIO
    TITLE "TOEIC LR Kinnojyukugo_01_0866"
    INDEX 01 19:48:36
  TRACK 867 AUDIO
    TITLE "TOEIC LR Kinnojyukugo_01_0867"
    INDEX 01 19:50:31
  TRACK 868 AUDIO
    TITLE "TOEIC LR Kinnojyukugo_01_0868"
    INDEX 01 19:50:68
  TRACK 869 AUDIO
    TITLE "TOEIC LR Kinnojyukugo_01_0869"
    INDEX 01 19:52:69
  TRACK 870 AUDIO
    TITLE "TOEIC LR Kinnojyukugo_01_0870"
    INDEX 01 19:53:17
  TRACK 871 AUDIO
    TITLE "TOEIC LR Kinnojyukugo_01_0871"
    INDEX 01 19:55:18
  TRACK 872 AUDIO
    TITLE "TOEIC LR Kinnojyukugo_01_0872"
    INDEX 01 19:56:17
  TRACK 873 AUDIO
    TITLE "TOEIC LR Kinnojyukugo_01_0873"
    INDEX 01 19:57:42
  TRACK 874 AUDIO
    TITLE "TOEIC LR Kinnojyukugo_01_0874"
    INDEX 01 19:58:05
  TRACK 875 AUDIO
    TITLE "TOEIC LR Kinnojyukugo_01_0875"
    INDEX 01 19:59:16
  TRACK 876 AUDIO
    TITLE "TOEIC LR Kinnojyukugo_01_0876"
    INDEX 01 19:59:55
  TRACK 877 AUDIO
    TITLE "TOEIC LR Kinnojyukugo_01_0877"
    INDEX 01 20:02:08
  TRACK 878 AUDIO
    TITLE "TOEIC LR Kinnojyukugo_01_0878"
    INDEX 01 20:02:45
  TRACK 879 AUDIO
    TITLE "TOEIC LR Kinnojyukugo_01_0879"
    INDEX 01 20:04:72
  TRACK 880 AUDIO
    TITLE "TOEIC LR Kinnojyukugo_01_0880"
    INDEX 01 20:05:22
  TRACK 881 AUDIO
    TITLE "TOEIC LR Kinnojyukugo_01_0881"
    INDEX 01 20:07:49
  TRACK 882 AUDIO
    TITLE "TOEIC LR Kinnojyukugo_01_0882"
    INDEX 01 20:08:50
  TRACK 883 AUDIO
    TITLE "TOEIC LR Kinnojyukugo_01_0883"
    INDEX 01 20:10:12
  TRACK 884 AUDIO
    TITLE "TOEIC LR Kinnojyukugo_01_0884"
    INDEX 01 20:10:51
  TRACK 885 AUDIO
    TITLE "TOEIC LR Kinnojyukugo_01_0885"
    INDEX 01 20:12:16
  TRACK 886 AUDIO
    TITLE "TOEIC LR Kinnojyukugo_01_0886"
    INDEX 01 20:12:56
  TRACK 887 AUDIO
    TITLE "TOEIC LR Kinnojyukugo_01_0887"
    INDEX 01 20:14:49
  TRACK 888 AUDIO
    TITLE "TOEIC LR Kinnojyukugo_01_0888"
    INDEX 01 20:15:13
  TRACK 889 AUDIO
    TITLE "TOEIC LR Kinnojyukugo_01_0889"
    INDEX 01 20:17:21
  TRACK 890 AUDIO
    TITLE "TOEIC LR Kinnojyukugo_01_0890"
    INDEX 01 20:17:47
  TRACK 891 AUDIO
    TITLE "TOEIC LR Kinnojyukugo_01_0891"
    INDEX 01 20:19:58
  TRACK 892 AUDIO
    TITLE "TOEIC LR Kinnojyukugo_01_0892"
    INDEX 01 20:20:57
  TRACK 893 AUDIO
    TITLE "TOEIC LR Kinnojyukugo_01_0893"
    INDEX 01 20:22:25
  TRACK 894 AUDIO
    TITLE "TOEIC LR Kinnojyukugo_01_0894"
    INDEX 01 20:22:64
  TRACK 895 AUDIO
    TITLE "TOEIC LR Kinnojyukugo_01_0895"
    INDEX 01 20:24:02
  TRACK 896 AUDIO
    TITLE "TOEIC LR Kinnojyukugo_01_0896"
    INDEX 01 20:24:39
  TRACK 897 AUDIO
    TITLE "TOEIC LR Kinnojyukugo_01_0897"
    INDEX 01 20:26:38
  TRACK 898 AUDIO
    TITLE "TOEIC LR Kinnojyukugo_01_0898"
    INDEX 01 20:27:02
  TRACK 899 AUDIO
    TITLE "TOEIC LR Kinnojyukugo_01_0899"
    INDEX 01 20:28:66
  TRACK 900 AUDIO
    TITLE "TOEIC LR Kinnojyukugo_01_0900"
    INDEX 01 20:29:15
  TRACK 901 AUDIO
    TITLE "TOEIC LR Kinnojyukugo_01_0901"
    INDEX 01 20:31:04
  TRACK 902 AUDIO
    TITLE "TOEIC LR Kinnojyukugo_01_0902"
    INDEX 01 20:32:01
  TRACK 903 AUDIO
    TITLE "TOEIC LR Kinnojyukugo_01_0903"
    INDEX 01 20:35:17
  TRACK 904 AUDIO
    TITLE "TOEIC LR Kinnojyukugo_01_0904"
    INDEX 01 20:35:55
  TRACK 905 AUDIO
    TITLE "TOEIC LR Kinnojyukugo_01_0905"
    INDEX 01 20:37:50
  TRACK 906 AUDIO
    TITLE "TOEIC LR Kinnojyukugo_01_0906"
    INDEX 01 20:38:22
  TRACK 907 AUDIO
    TITLE "TOEIC LR Kinnojyukugo_01_0907"
    INDEX 01 20:40:24
  TRACK 908 AUDIO
    TITLE "TOEIC LR Kinnojyukugo_01_0908"
    INDEX 01 20:40:62
  TRACK 909 AUDIO
    TITLE "TOEIC LR Kinnojyukugo_01_0909"
    INDEX 01 20:43:56
  TRACK 910 AUDIO
    TITLE "TOEIC LR Kinnojyukugo_01_0910"
    INDEX 01 20:44:05
  TRACK 911 AUDIO
    TITLE "TOEIC LR Kinnojyukugo_01_0911"
    INDEX 01 20:46:72
  TRACK 912 AUDIO
    TITLE "TOEIC LR Kinnojyukugo_01_0912"
    INDEX 01 20:48:01
  TRACK 913 AUDIO
    TITLE "TOEIC LR Kinnojyukugo_01_0913"
    INDEX 01 20:49:12
  TRACK 914 AUDIO
    TITLE "TOEIC LR Kinnojyukugo_01_0914"
    INDEX 01 20:49:49
  TRACK 915 AUDIO
    TITLE "TOEIC LR Kinnojyukugo_01_0915"
    INDEX 01 20:52:22
  TRACK 916 AUDIO
    TITLE "TOEIC LR Kinnojyukugo_01_0916"
    INDEX 01 20:52:61
  TRACK 917 AUDIO
    TITLE "TOEIC LR Kinnojyukugo_01_0917"
    INDEX 01 20:55:48
  TRACK 918 AUDIO
    TITLE "TOEIC LR Kinnojyukugo_01_0918"
    INDEX 01 20:56:16
  TRACK 919 AUDIO
    TITLE "TOEIC LR Kinnojyukugo_01_0919"
    INDEX 01 20:58:64
  TRACK 920 AUDIO
    TITLE "TOEIC LR Kinnojyukugo_01_0920"
    INDEX 01 20:59:16
  TRACK 921 AUDIO
    TITLE "TOEIC LR Kinnojyukugo_01_0921"
    INDEX 01 21:01:62
  TRACK 922 AUDIO
    TITLE "TOEIC LR Kinnojyukugo_01_0922"
    INDEX 01 21:02:63
  TRACK 923 AUDIO
    TITLE "TOEIC LR Kinnojyukugo_01_0923"
    INDEX 01 21:03:67
  TRACK 924 AUDIO
    TITLE "TOEIC LR Kinnojyukugo_01_0924"
    INDEX 01 21:04:29
  TRACK 925 AUDIO
    TITLE "TOEIC LR Kinnojyukugo_01_0925"
    INDEX 01 21:07:10
  TRACK 926 AUDIO
    TITLE "TOEIC LR Kinnojyukugo_01_0926"
    INDEX 01 21:07:53
  TRACK 927 AUDIO
    TITLE "TOEIC LR Kinnojyukugo_01_0927"
    INDEX 01 21:09:61
  TRACK 928 AUDIO
    TITLE "TOEIC LR Kinnojyukugo_01_0928"
    INDEX 01 21:10:33
  TRACK 929 AUDIO
    TITLE "TOEIC LR Kinnojyukugo_01_0929"
    INDEX 01 21:12:36
  TRACK 930 AUDIO
    TITLE "TOEIC LR Kinnojyukugo_01_0930"
    INDEX 01 21:12:68
  TRACK 931 AUDIO
    TITLE "TOEIC LR Kinnojyukugo_01_0931"
    INDEX 01 21:14:72
  TRACK 932 AUDIO
    TITLE "TOEIC LR Kinnojyukugo_01_0932"
    INDEX 01 21:16:03
  TRACK 933 AUDIO
    TITLE "TOEIC LR Kinnojyukugo_01_0933"
    INDEX 01 21:17:34
  TRACK 934 AUDIO
    TITLE "TOEIC LR Kinnojyukugo_01_0934"
    INDEX 01 21:17:71
  TRACK 935 AUDIO
    TITLE "TOEIC LR Kinnojyukugo_01_0935"
    INDEX 01 21:19:44
  TRACK 936 AUDIO
    TITLE "TOEIC LR Kinnojyukugo_01_0936"
    INDEX 01 21:20:08
  TRACK 937 AUDIO
    TITLE "TOEIC LR Kinnojyukugo_01_0937"
    INDEX 01 21:22:62
  TRACK 938 AUDIO
    TITLE "TOEIC LR Kinnojyukugo_01_0938"
    INDEX 01 21:23:26
  TRACK 939 AUDIO
    TITLE "TOEIC LR Kinnojyukugo_01_0939"
    INDEX 01 21:25:13
  TRACK 940 AUDIO
    TITLE "TOEIC LR Kinnojyukugo_01_0940"
    INDEX 01 21:25:37
  TRACK 941 AUDIO
    TITLE "TOEIC LR Kinnojyukugo_01_0941"
    INDEX 01 21:27:24
  TRACK 942 AUDIO
    TITLE "TOEIC LR Kinnojyukugo_01_0942"
    INDEX 01 21:28:24
  TRACK 943 AUDIO
    TITLE "TOEIC LR Kinnojyukugo_01_0943"
    INDEX 01 21:29:60
  TRACK 944 AUDIO
    TITLE "TOEIC LR Kinnojyukugo_01_0944"
    INDEX 01 21:30:20
  TRACK 945 AUDIO
    TITLE "TOEIC LR Kinnojyukugo_01_0945"
    INDEX 01 21:33:27
  TRACK 946 AUDIO
    TITLE "TOEIC LR Kinnojyukugo_01_0946"
    INDEX 01 21:33:66
  TRACK 947 AUDIO
    TITLE "TOEIC LR Kinnojyukugo_01_0947"
    INDEX 01 21:38:16
  TRACK 948 AUDIO
    TITLE "TOEIC LR Kinnojyukugo_01_0948"
    INDEX 01 21:38:57
  TRACK 949 AUDIO
    TITLE "TOEIC LR Kinnojyukugo_01_0949"
    INDEX 01 21:41:61
  TRACK 950 AUDIO
    TITLE "TOEIC LR Kinnojyukugo_01_0950"
    INDEX 01 21:42:12
  TRACK 951 AUDIO
    TITLE "TOEIC LR Kinnojyukugo_01_0951"
    INDEX 01 21:45:18
  TRACK 952 AUDIO
    TITLE "TOEIC LR Kinnojyukugo_01_0952"
    INDEX 01 21:46:18
  TRACK 953 AUDIO
    TITLE "TOEIC LR Kinnojyukugo_01_0953"
    INDEX 01 21:47:31
  TRACK 954 AUDIO
    TITLE "TOEIC LR Kinnojyukugo_01_0954"
    INDEX 01 21:47:66
  TRACK 955 AUDIO
    TITLE "TOEIC LR Kinnojyukugo_01_0955"
    INDEX 01 21:50:13
  TRACK 956 AUDIO
    TITLE "TOEIC LR Kinnojyukugo_01_0956"
    INDEX 01 21:50:55
  TRACK 957 AUDIO
    TITLE "TOEIC LR Kinnojyukugo_01_0957"
    INDEX 01 21:52:12
  TRACK 958 AUDIO
    TITLE "TOEIC LR Kinnojyukugo_01_0958"
    INDEX 01 21:52:55
  TRACK 959 AUDIO
    TITLE "TOEIC LR Kinnojyukugo_01_0959"
    INDEX 01 21:54:68
  TRACK 960 AUDIO
    TITLE "TOEIC LR Kinnojyukugo_01_0960"
    INDEX 01 21:55:18
  TRACK 961 AUDIO
    TITLE "TOEIC LR Kinnojyukugo_01_0961"
    INDEX 01 21:57:31
  TRACK 962 AUDIO
    TITLE "TOEIC LR Kinnojyukugo_01_0962"
    INDEX 01 21:58:31
  TRACK 963 AUDIO
    TITLE "TOEIC LR Kinnojyukugo_01_0963"
    INDEX 01 21:59:28
  TRACK 964 AUDIO
    TITLE "TOEIC LR Kinnojyukugo_01_0964"
    INDEX 01 22:00:00
  TRACK 965 AUDIO
    TITLE "TOEIC LR Kinnojyukugo_01_0965"
    INDEX 01 22:01:07
  TRACK 966 AUDIO
    TITLE "TOEIC LR Kinnojyukugo_01_0966"
    INDEX 01 22:01:46
  TRACK 967 AUDIO
    TITLE "TOEIC LR Kinnojyukugo_01_0967"
    INDEX 01 22:04:02
  TRACK 968 AUDIO
    TITLE "TOEIC LR Kinnojyukugo_01_0968"
    INDEX 01 22:04:39
  TRACK 969 AUDIO
    TITLE "TOEIC LR Kinnojyukugo_01_0969"
    INDEX 01 22:06:52
  TRACK 970 AUDIO
    TITLE "TOEIC LR Kinnojyukugo_01_0970"
    INDEX 01 22:07:02
  TRACK 971 AUDIO
    TITLE "TOEIC LR Kinnojyukugo_01_0971"
    INDEX 01 22:09:15
  TRACK 972 AUDIO
    TITLE "TOEIC LR Kinnojyukugo_01_0972"
    INDEX 01 22:10:14
  TRACK 973 AUDIO
    TITLE "TOEIC LR Kinnojyukugo_01_0973"
    INDEX 01 22:11:23
  TRACK 974 AUDIO
    TITLE "TOEIC LR Kinnojyukugo_01_0974"
    INDEX 01 22:11:63
  TRACK 975 AUDIO
    TITLE "TOEIC LR Kinnojyukugo_01_0975"
    INDEX 01 22:15:29
  TRACK 976 AUDIO
    TITLE "TOEIC LR Kinnojyukugo_01_0976"
    INDEX 01 22:15:62
  TRACK 977 AUDIO
    TITLE "TOEIC LR Kinnojyukugo_01_0977"
    INDEX 01 22:18:18
  TRACK 978 AUDIO
    TITLE "TOEIC LR Kinnojyukugo_01_0978"
    INDEX 01 22:18:55
  TRACK 979 AUDIO
    TITLE "TOEIC LR Kinnojyukugo_01_0979"
    INDEX 01 22:20:65
  TRACK 980 AUDIO
    TITLE "TOEIC LR Kinnojyukugo_01_0980"
    INDEX 01 22:21:28
  TRACK 981 AUDIO
    TITLE "TOEIC LR Kinnojyukugo_01_0981"
    INDEX 01 22:23:36
  TRACK 982 AUDIO
    TITLE "TOEIC LR Kinnojyukugo_01_0982"
    INDEX 01 22:24:48
  TRACK 983 AUDIO
    TITLE "TOEIC LR Kinnojyukugo_01_0983"
    INDEX 01 22:25:67
  TRACK 984 AUDIO
    TITLE "TOEIC LR Kinnojyukugo_01_0984"
    INDEX 01 22:26:27
  TRACK 985 AUDIO
    TITLE "TOEIC LR Kinnojyukugo_01_0985"
    INDEX 01 22:27:52
  TRACK 986 AUDIO
    TITLE "TOEIC LR Kinnojyukugo_01_0986"
    INDEX 01 22:28:16
  TRACK 987 AUDIO
    TITLE "TOEIC LR Kinnojyukugo_01_0987"
    INDEX 01 22:30:68
  TRACK 988 AUDIO
    TITLE "TOEIC LR Kinnojyukugo_01_0988"
    INDEX 01 22:31:30
  TRACK 989 AUDIO
    TITLE "TOEIC LR Kinnojyukugo_01_0989"
    INDEX 01 22:33:52
  TRACK 990 AUDIO
    TITLE "TOEIC LR Kinnojyukugo_01_0990"
    INDEX 01 22:34:03
  TRACK 991 AUDIO
    TITLE "TOEIC LR Kinnojyukugo_01_0991"
    INDEX 01 22:36:25
  TRACK 992 AUDIO
    TITLE "TOEIC LR Kinnojyukugo_01_0992"
    INDEX 01 22:37:25
  TRACK 993 AUDIO
    TITLE "TOEIC LR Kinnojyukugo_01_0993"
    INDEX 01 22:38:63
  TRACK 994 AUDIO
    TITLE "TOEIC LR Kinnojyukugo_01_0994"
    INDEX 01 22:39:26
  TRACK 995 AUDIO
    TITLE "TOEIC LR Kinnojyukugo_01_0995"
    INDEX 01 22:40:23
  TRACK 996 AUDIO
    TITLE "TOEIC LR Kinnojyukugo_01_0996"
    INDEX 01 22:40:60
  TRACK 997 AUDIO
    TITLE "TOEIC LR Kinnojyukugo_01_0997"
    INDEX 01 22:43:29
  TRACK 998 AUDIO
    TITLE "TOEIC LR Kinnojyukugo_01_0998"
    INDEX 01 22:43:66
  TRACK 999 AUDIO
    TITLE "TOEIC LR Kinnojyukugo_01_0999"
    INDEX 01 22:47:39
  TRACK 1000 AUDIO
    TITLE "TOEIC LR Kinnojyukugo_01_1000"
    INDEX 01 22:47:62
  TRACK 1001 AUDIO
    TITLE "TOEIC LR Kinnojyukugo_01_1001"
    INDEX 01 22:51:33
